<svg width="20" height="20" viewBox="0 0 20 20" fill="none" xmlns="http://www.w3.org/2000/svg">
<path d="M3.33333 4.99984H1.66666V16.6665C1.66666 17.5832 2.41666 18.3332 3.33333 18.3332H15V16.6665H3.33333V4.99984ZM11.6667 9.1665C13.05 9.1665 14.1667 8.04984 14.1667 6.6665C14.1667 5.28317 13.05 4.1665 11.6667 4.1665C10.2833 4.1665 9.16666 5.28317 9.16666 6.6665C9.16666 8.04984 10.2833 9.1665 11.6667 9.1665ZM11.6667 5.83317C12.125 5.83317 12.5 6.20817 12.5 6.6665C12.5 7.12484 12.125 7.49984 11.6667 7.49984C11.2083 7.49984 10.8333 7.12484 10.8333 6.6665C10.8333 6.20817 11.2083 5.83317 11.6667 5.83317ZM16.6667 1.6665H6.66666C5.75 1.6665 5 2.4165 5 3.33317V13.3332C5 14.2498 5.75 14.9998 6.66666 14.9998H16.6667C17.5833 14.9998 18.3333 14.2498 18.3333 13.3332V3.33317C18.3333 2.4165 17.5833 1.6665 16.6667 1.6665ZM8.90833 13.3332C9.7 12.8082 10.65 12.4998 11.6667 12.4998C12.6833 12.4998 13.6333 12.8082 14.425 13.3332H8.90833ZM16.6667 13.1082C15.4417 11.7165 13.6667 10.8332 11.6667 10.8332C9.66666 10.8332 7.89166 11.7165 6.66666 13.1082V3.33317H16.6667V13.1082Z" fill="#344B77"/>
</svg>
