<?xml version="1.0" encoding="UTF-8"?>
<!DOCTYPE svg PUBLIC "-//W3C//DTD SVG 1.1//EN" "http://www.w3.org/Graphics/SVG/1.1/DTD/svg11.dtd">
<!-- Creator: CorelDRAW X7 -->
<svg xmlns="http://www.w3.org/2000/svg" xml:space="preserve" width="159.808mm" height="172.5mm" version="1.1" style="shape-rendering:geometricPrecision; text-rendering:geometricPrecision; image-rendering:optimizeQuality; fill-rule:evenodd; clip-rule:evenodd"
viewBox="0 0 15981 17250"
 xmlns:xlink="http://www.w3.org/1999/xlink">
 <defs>
  <style type="text/css">
   <![CDATA[
    .fil1 {fill:#4c8bf5}
    .fil0 {fill:#a4c4ff}
   ]]>
  </style>
 </defs>
 <g id="Layer_x0020_1">
  <metadata id="CorelCorpID_0Corel-Layer"/>
  <path class="fil0" d="M2855 11546c-23,2 -28,-2 -36,1 -3,2 -2,5 -6,13 -4,3 -12,2 -15,4 -6,4 -10,9 -14,13 -2,2 -3,8 -5,11 -3,6 -7,8 -9,12 -4,6 -3,12 -6,16 -3,4 -7,4 -12,5 -3,2 -7,6 -12,7 -9,1 -11,2 -25,1 -10,0 -19,10 -29,23 -4,5 -14,7 -18,12 -5,7 -3,18 -6,24 -3,5 -8,8 -9,11 -3,1 -9,1 -16,2 -8,1 -17,3 -20,0 -6,-6 -17,-17 -29,-27 -4,-3 -6,-8 -10,-12 -4,-4 -9,-6 -13,-8 -14,-11 -27,-16 -36,-16 -2,0 -6,-2 -9,-6 -7,-9 -10,-23 -13,-33 -24,2 -46,0 -62,3 -8,3 -11,6 -18,11 -12,10 -5,-6 -63,19 -10,4 -20,0 -33,3 -5,0 -8,6 -13,12 -1,0 -5,3 -11,2 -2,-1 -4,-5 -7,-6 -6,0 -13,5 -19,5 -6,0 -14,-5 -20,-3 -7,2 -11,8 -20,10 -6,2 -13,4 -20,4 -11,0 -18,-4 -32,-2 -7,-7 -11,-21 -17,-33 -2,-6 0,-14 -2,-16 -3,-2 -9,1 -15,1 -4,0 -8,-4 -13,-4 -3,-1 -7,2 -11,2 -9,-1 -10,4 -18,3 -8,-1 -19,-10 -38,-33 -9,-10 -18,-15 -19,-22 -2,-9 3,-17 10,-28 8,-11 20,-27 31,-37 4,-5 9,0 3,-19 -3,-7 -7,-15 -11,-28 -1,-4 -8,-16 -15,-30 -7,-11 -13,-24 -20,-35 -2,-4 -5,-5 -7,-8 -3,-5 -8,-7 -11,-10 -9,-13 -16,-24 -27,-36 -7,-8 -16,-13 -12,-18 11,-13 23,-23 29,-30 8,-8 11,-17 19,-20 4,-2 12,-3 19,-4 6,-1 10,-6 11,-7 2,-4 3,-9 2,-15 0,-3 -2,-7 -2,-12 0,-3 1,-8 3,-13 3,-13 1,-21 3,-29 4,-12 11,-15 12,-18 2,-5 0,-7 -3,-12 -2,-4 -1,-8 -3,-16 -2,-7 -7,-16 -8,-29 -1,-8 -2,-14 -1,-20 2,-8 8,-12 9,-19 2,-6 1,-13 -5,-23 -2,-4 -4,-11 -9,-16 -3,-4 -8,-3 -13,-8 -2,-2 -5,-10 -9,-13 -4,-3 -8,-7 -12,-10 1,-6 4,-8 6,-15 2,-6 2,-18 2,-24 0,-5 -6,-7 -7,-13 -2,-9 -2,-19 -6,-27 -2,-6 -8,-6 -12,-10 -10,-10 -23,-9 -30,-8 0,-6 -1,-11 -2,-16 -1,-3 -2,-5 -4,-8 -1,-3 -2,-7 -5,-10 -2,-3 -2,-9 -6,-12 -4,-3 -13,-4 -18,-11 -12,-15 -19,-9 -24,-12 -8,-4 -20,-12 -25,-25 -4,-10 -9,-9 -13,-14 -2,-2 -2,-10 -5,-13 -4,-4 -10,-4 -12,-7 -3,-6 -10,-17 -13,-19 -6,-3 -15,4 -28,-7 -5,-4 -9,-7 -12,-10 -5,-3 -8,-10 -11,-13 -3,-4 -8,-4 -11,-8 -4,-4 -8,-8 -13,-13 -7,-8 -20,-7 -29,-8 -4,-8 -7,-14 -10,-23 -2,-5 -5,-6 -6,-15 -1,-11 9,-10 19,-16 6,-3 12,-8 14,-23 1,-4 -1,-12 -1,-18 1,-11 8,-20 12,-29 4,-6 5,-12 10,-16 7,-6 16,-6 25,-10 5,-2 9,-9 14,-11 12,-5 24,-10 34,-14 7,-3 13,-9 19,-11 8,-4 15,-4 15,-10 0,-9 3,-18 4,-26 1,-10 0,-18 2,-23 3,-7 8,-8 8,-12 0,-4 -3,-10 -9,-18 -4,-5 -4,-15 -2,-21 1,-7 4,-10 1,-15 -2,-4 -7,-5 -16,-6 -4,-1 -6,-8 -8,-12 -3,-3 -6,-2 -8,-6 -2,-6 -3,-10 -5,-18 -2,-5 1,-14 -1,-19 -1,-7 -6,-13 -7,-19 -2,-8 -6,-17 -8,-24 -1,-5 2,-11 0,-17 -2,-8 -9,-15 -11,-19 -3,-3 -6,-4 -8,-6 -4,-5 -7,-10 -11,-13 -4,-4 -9,-5 -13,-8 -2,-2 -4,-5 -6,-6 -2,-1 -5,-2 -6,-2 -4,-1 -5,8 -9,7 -4,-1 -9,-8 -12,-10 -4,-2 -2,-5 -4,-8 -1,-3 -7,-5 -8,-9 -2,-5 -4,-12 -4,-22 0,-5 -6,-1 -12,-4 -3,-1 -5,-10 -7,-22 -4,-27 -26,-3 -30,-24 0,-2 -13,-9 -15,-13 -1,-3 0,-7 -2,-10 -2,-2 -7,-1 -7,-2 -8,-2 -14,-1 -19,-4 -1,0 0,-4 -1,-6 -1,-2 -5,-2 -6,-3 -15,-8 -15,-24 -27,-25 -4,0 -17,-3 -26,-15 -10,-18 -10,-32 -12,-58 3,-1 5,-1 11,-9 1,-1 3,-8 5,-10 4,-4 5,-9 13,-14 0,0 1,-6 5,-14 2,-5 9,-15 7,-22 -1,-5 -5,-14 -9,-19 -3,-4 -8,-2 -14,-5 -6,-2 -10,-8 -14,-16 -1,-4 -1,-12 -2,-16 -2,-4 -6,-2 -7,-5 -2,-4 -3,-11 -6,-17 -2,-3 -5,-5 -8,-7 -2,-3 -4,-7 -6,-9 -8,-6 -15,-1 -20,-7 -6,-5 -4,-13 -9,-16 -4,-3 -11,-2 -17,-3 -3,0 -4,-4 -8,-5 -3,-2 -7,0 -8,-3 -4,-5 4,-5 6,-14 0,-2 -3,-4 -3,-7 -1,-2 0,-5 0,-8 0,-2 -4,-2 -5,-4 -2,-2 0,-17 -2,-20 -7,-11 -15,-29 -17,-46 -1,-22 5,-38 6,-48 0,-16 -5,-20 -6,-21 -2,0 -17,6 -31,-16 -2,-4 -9,-6 -13,-9 -5,-3 -10,-8 -16,-11 -7,-3 -14,-8 -20,-12 -5,-3 -10,-3 -13,-7 -2,-6 -1,-14 -2,-21 -2,-10 -22,-5 -21,-53 1,-22 -29,-16 1,-43 1,0 1,-10 -2,-23 0,-3 -4,-3 -6,-7 -2,-4 -1,-14 -2,-18 -3,-10 -5,-19 -9,-24 -8,-2 -19,2 -31,-1 -5,-2 -6,-7 -8,-11 -2,-2 -5,-2 -7,-5 -2,-3 -2,-9 -7,-12 -5,-3 -15,-2 -29,-3 -4,-8 -7,-22 -18,-32 -3,-2 -6,0 -10,-3 -6,-3 -9,-8 -18,-10 -7,-1 -7,-14 -18,-20 -4,-2 -5,1 -19,-3 -6,-2 -14,-4 -23,-6 -9,-3 -17,-6 -25,-9 -11,-6 -19,-16 -30,-22 -10,-7 -23,-12 -37,-18 -13,-7 -28,-13 -46,-17 -4,-1 -9,1 -13,0 -5,-1 -9,-5 -15,-6 -6,0 -17,-4 -26,-10 -3,-3 -4,-7 -6,-10 -4,-5 -10,-5 -9,-7 2,-1 1,-11 2,-18 0,-4 2,-6 3,-8 0,0 -3,-1 -9,-2 -3,0 -5,-4 -8,-5 -7,-1 -16,1 -24,0 -13,-3 -26,-9 -28,-10 -5,-6 -8,-10 -10,-13 -2,-2 -5,1 -7,-1 -3,-2 -8,-7 -26,-13 -25,-8 -20,-27 -34,-25 -1,0 -2,2 -4,3 -2,1 -7,0 -11,2 -4,-2 -20,-9 -34,-19 -3,-3 -4,-12 -7,-15 -4,-5 -11,-3 -12,-6 -1,-3 -1,-6 2,-7 2,-1 6,-7 6,-10 0,-4 -4,-4 -5,-9 -1,-3 0,-6 -1,-10 -1,-4 -5,-7 -7,-11 -4,-11 -10,-23 -16,-34 0,-1 0,-5 0,-7 -1,-2 -4,-1 -5,-2 -7,-13 -14,-22 -20,-24 -8,-2 -14,-5 -18,-9 -4,-3 -9,-6 -11,-9 -7,-13 1,-29 -1,-41 -2,-7 -6,-8 -8,-12 -2,-4 -1,-10 -3,-14 -1,-3 -8,-4 -8,-8 0,-5 -1,-7 -14,-9 -8,-1 -19,-7 -30,-17 -8,-7 -15,-15 -26,-22 -3,-2 -5,-5 -6,-8 -3,-7 -3,-16 -3,-26 1,-9 1,-19 5,-30 1,-3 7,-5 8,-9 1,-5 1,-10 3,-15 2,-4 6,-7 7,-11 2,-4 1,-7 3,-10 1,-5 5,-9 7,-13 2,-5 2,-11 3,-15 2,-3 6,-4 7,-7 4,-10 7,-16 7,-17 0,-3 -2,-4 -2,-6 -1,-2 0,-5 0,-7 -1,-4 -2,-6 -2,-9 0,-5 2,-9 2,-11 2,-8 11,-3 36,-37 0,-1 -1,-6 -2,-14 0,-3 2,-6 2,-10 0,-6 3,-17 2,-22 -1,-6 -7,-10 -8,-15 -1,-6 0,-9 -2,-11 0,-30 -7,-23 -14,-32 1,-10 1,-19 0,-25 0,-4 -3,-3 -1,-9 0,-2 3,-5 4,-7 1,-4 0,-8 2,-13 1,-3 -1,-11 -7,-21 -1,-2 -4,0 -5,-1 -1,-2 -1,-7 -2,-8 -6,-8 -15,-19 -25,-22 -19,-5 1,-38 -18,-49 -3,-2 0,-30 -14,-34 -7,-2 -8,-10 -12,-16 -6,-8 -15,-17 -18,-29 -5,-23 2,-39 -11,-48 -8,-6 -12,-22 -8,-35 2,-6 6,-10 9,-14 5,-7 8,-14 11,-20 2,-5 0,-12 0,-16 -1,-19 14,6 5,-36 0,-2 -1,-5 -1,-8 1,-5 4,-5 4,-18 -1,-6 -2,-13 -1,-19 0,-7 -2,-15 -1,-21 2,-6 8,0 11,-12 3,-10 10,-24 12,-26 3,-1 10,-3 15,-9 3,-2 4,-8 7,-11 9,-10 20,-20 27,-22 7,-3 15,-1 20,-4 6,-3 8,-10 11,-13 3,-3 7,-2 9,-5 2,-4 3,-12 5,-16 2,-3 7,-5 9,-9 1,-2 -1,-5 0,-7 2,-6 5,-11 9,-18 1,-2 4,-1 6,-3 2,-3 5,-8 7,-11 3,-19 0,-20 0,-24 0,-7 7,-12 12,-24 2,-5 -2,-10 1,-17 1,-1 4,-6 9,-10 2,-2 4,-2 6,-4 1,-2 2,-5 4,-6 2,-3 5,-3 7,-5 3,-5 1,-6 3,-9 4,-5 9,-10 15,-15 8,-7 16,-10 25,-14 2,-1 6,-1 9,-3 3,-2 4,-6 8,-9 5,-5 12,-9 17,-11 7,-4 13,-7 18,-9 4,-1 12,-4 14,-4 1,0 0,-10 4,-16 2,-3 4,-2 7,-4 4,-3 7,-8 7,-9 1,-9 -3,-6 -5,-10 -1,-2 0,-7 2,-13 1,-3 1,-7 3,-12 1,-1 6,-1 7,-3 2,-4 4,-8 7,-12 0,-1 4,-1 5,-2 1,-2 2,-4 4,-6 1,-3 -2,-6 -8,-5l-145 -122 -13 -11 -56 -30 -44 -141 -138 -2 -42 -58c-8,3 -15,3 -22,3 -6,0 -11,6 -16,6 -10,0 -11,-8 -16,-8 -8,-1 -14,0 -25,0 -5,0 -8,-4 -10,-8 -1,-2 -4,-3 -5,-5 0,-2 1,-4 0,-6 -1,-4 -3,-7 -4,-10 0,-4 1,-8 1,-11 -1,-6 -4,-9 -8,-9 -3,-1 -2,-5 -5,-8 -3,-2 -10,-2 -12,-5 -3,-4 -6,-8 -9,-12 -3,-4 1,-9 -1,-12 -6,-13 -18,-7 -21,-13 -1,-4 -2,-11 -4,-20 -1,-3 -6,-4 -9,-7 -2,-2 -3,-5 -5,-6 -3,-2 -7,-4 -11,-5 -7,-2 -17,1 -25,0 -3,-1 -2,-5 -5,-5 -14,-1 -27,0 -39,-2 -5,-1 -8,-4 -12,-5 -4,-1 -9,0 -10,-4 -10,-36 -11,-37 -13,-54 -1,-5 0,-21 0,-32 -1,-9 -4,-16 -3,-22 0,-10 3,-14 5,-19 4,-16 14,-25 14,-46 -10,0 -51,26 -93,24 -5,0 -13,2 -18,2 -5,0 -7,-1 -12,-2 -6,0 -12,-4 -16,-4 -4,0 -10,2 -13,3 -15,2 -5,-8 -3,-32 2,-13 11,-16 19,-15 10,1 21,10 30,3 2,-1 6,-1 8,-2 6,-5 9,-13 13,-15 11,-8 11,-3 22,-10 2,-1 5,-5 7,-6 7,-4 2,-9 4,-19 8,-3 25,-10 32,-21 1,-3 5,-4 6,-7 1,-3 1,-6 0,-9 -23,6 -40,-7 -53,-23 -3,-5 -14,2 -25,-1 -1,0 -6,-1 -11,-5 -9,-6 -17,-16 -27,-20 -4,0 -6,5 -7,1 -2,-3 -3,-7 -4,-10 -6,-10 -13,-12 -17,-22 -8,-19 -20,-12 -5,-55 3,-10 2,-16 2,-21 0,-4 3,-3 1,-15 0,-3 4,-6 3,-9 -1,-8 -7,-15 -9,-24 -3,-9 -1,-20 -3,-27 -2,-11 -5,-12 -6,-16 -1,-5 17,-43 21,-49 3,1 2,3 5,3 8,2 17,2 22,-4 2,-3 3,-9 1,-14 -1,-5 4,-9 4,-14 1,-8 -1,-15 0,-17 1,-2 6,-15 9,-19 7,-9 15,-16 17,-19 2,-3 2,-6 3,-9 1,-3 3,-5 3,-7 0,-7 -5,-12 -7,-19 -1,-6 -1,-14 -3,-19 -6,-14 -5,-15 -5,-21 1,-3 3,-3 4,-7 1,-6 2,-15 5,-26 2,-8 12,-19 11,-24 -2,-12 -16,-20 -16,-24 0,-4 12,-10 23,-10 8,0 17,3 19,0 8,-7 14,-11 21,-12 10,-2 18,5 22,0 3,-2 -1,-7 -3,-12 -2,-2 -1,-5 0,-8 1,-5 5,-2 8,-4 3,-1 5,-8 8,-10 8,-7 11,-4 18,-11 2,-2 11,0 18,-7 4,-4 7,-17 12,-21 6,-5 13,-10 19,-14 2,-1 5,-1 7,-2 8,-5 10,-12 17,-14 5,-1 10,-1 15,1 4,1 5,4 7,7 1,1 4,2 7,2 2,1 4,3 6,2 4,-2 8,-4 11,-8 2,-3 3,-6 6,-9 2,-1 3,-3 5,-5 2,-1 2,-5 4,-7 3,-2 6,-2 9,-4 2,-2 3,-4 5,-6 2,-2 8,-1 10,-2 6,-3 10,-10 13,-13 3,-1 7,3 9,2 6,-3 7,-8 12,-6 31,11 15,-28 59,1 5,3 11,1 21,12 4,4 8,7 11,11 1,2 1,4 3,6 2,1 4,0 6,1 5,3 10,6 14,8 4,3 8,1 11,1 5,0 6,2 13,2 4,0 5,-2 9,-3 15,-1 30,1 43,0 9,0 17,-3 26,-1 20,4 33,6 42,7 4,0 7,-4 9,-4 5,0 8,5 11,2 4,-4 5,-9 17,-18 5,1 10,1 16,0 18,-2 19,-9 62,-6 12,6 46,34 60,46 -5,18 -11,29 -9,35 1,3 6,2 10,3 3,1 5,8 6,14 0,0 -5,4 -6,9 0,4 3,6 5,10 2,3 2,7 4,9 4,3 12,6 18,11 5,4 9,12 14,15 6,3 12,2 12,4 1,8 3,14 5,17 9,2 18,3 25,-3 9,-7 8,-11 14,-11 4,0 8,-1 11,0 6,1 14,4 17,7 6,5 7,12 10,11 2,0 4,0 5,-1 2,-1 2,-4 6,-4 7,-1 11,-3 16,-3 4,0 6,2 9,2 9,1 16,0 20,2 12,4 7,14 17,16 3,1 5,-2 7,-1 6,1 12,6 17,8 7,2 13,6 18,9 6,2 11,3 16,5 24,13 41,25 48,36 2,2 7,3 9,3 7,2 7,6 10,7 3,1 5,0 7,1 2,0 4,5 6,5 8,3 12,2 18,3 5,2 10,7 14,5 2,-2 0,-7 3,-10 1,-2 5,0 6,-3 0,0 4,-9 3,-19 0,-4 -3,-8 -3,-12 -1,-4 -1,-4 -1,-7 0,-8 5,-5 3,-35 -1,-9 -2,-17 -2,-24 11,-13 14,-24 22,-32 17,-18 25,-19 37,-27 5,-3 4,-9 7,-8 2,1 6,5 10,9 8,7 18,15 20,18 6,11 3,15 5,16 36,19 41,27 60,38 6,3 12,5 17,9 16,13 24,28 27,30 18,9 24,16 25,25 0,6 -2,9 -3,14 0,5 6,7 15,10 6,2 11,4 21,4 32,-1 30,20 44,21 5,0 6,-8 9,-7 2,2 3,6 4,9 2,3 7,6 8,10 6,14 6,25 14,25 3,0 6,-2 8,0 6,5 13,9 12,13 -1,4 -3,7 -1,13 6,6 12,17 16,22 7,3 9,6 13,13 3,-4 4,-13 12,-26 10,-15 19,-23 26,-28 2,-2 3,-7 5,-8 3,-1 5,2 9,2 7,0 15,3 18,1 5,-2 12,0 16,-1 3,-1 6,-3 8,-3 8,0 9,6 15,7 4,1 8,3 11,4 4,1 10,0 13,2 2,1 1,5 3,6 3,1 5,-1 8,0 4,2 6,6 9,8 4,2 7,2 10,4 6,4 5,11 9,13 3,2 8,-1 12,1 5,3 9,10 12,7 1,-1 0,-4 1,-6 0,-2 1,-2 1,-5 0,-2 -3,-3 -3,-4 0,-9 2,-14 4,-17 1,-1 3,-1 5,-1 1,-1 3,-3 5,-3 2,-1 6,1 9,-1 5,-3 11,-9 20,-17 46,-39 87,-32 115,-26 21,3 38,4 43,-15 3,-11 6,-18 9,-30 2,-8 18,-8 41,-8 8,0 14,-4 19,-7 2,-2 11,-2 13,-3 2,-2 3,-6 5,-7 3,-2 7,0 9,0 3,-1 6,-1 9,-1 7,-1 16,-7 33,-5 0,-24 -6,-27 -5,-32 0,-7 3,-10 11,-15 5,-3 15,0 20,-5 2,-2 2,-4 3,-5 2,-3 5,-5 5,-9 0,-1 -3,-3 -3,-5 0,-6 4,-17 2,-23 -1,-4 -7,-3 -8,-8 0,-2 1,-6 0,-8 0,-3 3,-5 2,-7 -1,-6 -4,-6 -5,-9 -1,-3 -1,-9 2,-9 11,-2 12,7 17,7 2,1 6,-5 11,-8 3,-2 4,-4 7,-6 1,-1 4,-1 5,-3 1,0 2,-3 3,-4 1,-1 3,-1 4,-2 2,-4 0,-9 3,-13 3,-6 8,-11 11,-16 5,-9 7,-16 8,-17 8,-6 18,-7 24,-12 8,-5 12,-12 16,-20 3,-7 8,-10 8,-20 -1,-36 -17,-81 -26,-118 -2,-13 -2,-26 -2,-36 0,-11 -9,-45 -11,-58 0,-3 0,-8 0,-17 1,-3 4,-6 5,-10 2,-21 4,-51 4,-67 -10,0 -17,3 -21,2 -4,-1 -5,-4 -8,-6 -2,-2 -7,0 -10,-2 -2,-3 -6,-10 -12,-15 -2,-3 -6,-4 -8,-6 -3,-2 -3,-8 -3,-8 -4,-1 -8,0 -10,-2 -3,-2 -3,-6 -5,-9 -2,-4 -6,-7 -6,-11 -2,-10 -2,-20 -5,-20 -3,0 -6,-1 -7,-3 -1,-3 0,-7 1,-11 1,-5 10,-6 14,-11 3,-4 2,-8 3,-12 1,-3 3,-3 5,-6 2,-3 3,-7 4,-7 5,-3 10,-3 13,-5 3,-1 6,-4 8,-4 4,-1 7,-1 9,0 8,4 11,14 21,10 5,-2 9,-7 12,-9 6,-4 12,-5 16,-6 11,-5 15,-4 18,-10 2,-6 -4,-7 -3,-17 5,-2 8,-5 11,-5 2,0 3,4 6,4 2,0 6,-1 10,-1 3,0 7,1 12,0 2,-1 5,-3 8,-6 2,-2 4,-5 6,-6 3,-1 7,-1 10,-2 7,-3 11,-7 15,-9 4,-2 8,-2 9,-4 2,-2 1,-5 4,-9 2,-4 10,-6 14,-13 3,-5 -3,-11 0,-15 2,-4 6,-6 11,-8 5,-2 11,-5 15,-5 7,0 6,6 11,6 6,0 5,-2 11,-5 5,-1 11,-2 19,-4 0,0 3,-19 9,-20 3,0 4,1 8,6 2,2 13,1 24,0 3,-1 4,-3 8,-4 3,0 9,4 12,4 9,-1 16,-2 16,-2 0,-11 0,-22 1,-30 2,-9 5,-15 8,-22 3,-8 5,-17 9,-23 3,-5 7,-8 10,-13 3,-6 1,-12 3,-17 1,-3 7,-6 7,-12 0,-2 -1,-12 1,-13 16,-2 28,-3 43,-2 9,0 19,5 27,8 7,2 6,-3 9,-3 7,1 12,1 18,-2 3,3 5,6 8,6 5,0 7,-6 12,-7 9,0 25,1 39,1 4,2 5,10 8,20 1,19 -2,47 4,64 2,6 8,6 13,8 5,2 12,6 14,6 4,0 6,-6 9,-6 7,-1 11,-1 15,-2 5,-1 7,-4 11,-5 4,-2 10,-1 14,-4 2,-2 2,-6 5,-8 5,-5 9,-10 10,-15 0,-5 -3,-8 -2,-13 1,-3 4,-6 7,-9 3,-3 6,-7 12,-7 10,1 15,3 21,0 10,-3 13,-8 18,-14 2,-2 6,-2 9,-4 4,-3 4,-7 8,-8 3,-2 9,-1 12,-1 8,0 10,3 16,2 5,-2 9,-7 14,-7 6,0 9,6 15,12 1,4 2,10 5,12 2,2 5,4 8,6 3,2 6,7 9,8 10,2 17,0 26,2 8,1 17,6 25,5 7,-1 8,-4 13,-7 3,-1 7,-1 10,-1 4,-1 7,-2 9,-1 3,1 3,4 5,7 2,4 6,2 10,3 4,0 7,4 12,3 6,-2 13,-3 18,-6 8,-6 14,-14 14,-14 3,0 9,5 17,9 7,5 19,9 21,11 10,-5 25,-17 41,-29 18,-13 36,-25 41,-30 38,-34 49,-39 86,-64 31,-20 46,4 61,2 13,-14 10,-10 14,-14 2,-3 10,-2 12,-4 7,-5 10,-10 16,-11 18,-4 35,3 43,3 13,-11 11,-14 16,-18 8,-7 9,-5 18,-6 6,0 19,-7 32,-9 61,-7 23,5 74,5 5,0 10,-1 14,1 5,2 4,8 7,12 3,4 11,6 13,11 4,8 12,13 16,21 5,10 6,23 16,25 25,6 40,24 50,41 11,17 17,30 32,33 20,4 29,5 34,11 3,2 2,6 6,8 5,2 16,0 29,0 30,0 105,-97 123,-121 20,-28 40,-48 56,-66 9,-10 16,-20 25,-28 10,-11 17,-21 28,-30 24,-20 49,-30 96,-61 29,-19 62,-60 80,-90 6,-9 8,-15 15,-20 19,-13 51,-21 75,-24 9,-2 21,-2 30,-4 28,-7 56,-23 84,-46 11,-9 27,-20 44,-29 18,-11 35,-16 36,-23 2,-20 11,-20 19,-17 6,2 11,9 17,0 5,-7 8,-8 15,-10 13,-2 32,1 49,-3 16,-4 20,-16 30,-16 17,-1 25,2 37,0 19,-4 30,-16 37,-22 7,-8 7,-14 9,-29 -9,-1 -16,-5 -25,0 -9,5 -10,-12 -10,-28 0,-10 5,-21 0,-21 -9,-4 -8,-7 -15,-11 -1,0 -1,4 -7,9 -26,-12 33,-17 -33,-21 -20,-1 -77,-21 -76,-42 2,-19 2,-36 0,-45 -13,-6 -32,-13 -50,-23 -25,-14 -49,-36 -78,-61 -11,-10 -14,-54 -29,-82 -21,-39 -4,-69 -79,-142 -10,-9 -71,-64 -69,-76 15,-67 -47,-30 21,-71 18,-11 -5,-19 22,-43 6,-5 12,-9 17,-16 7,-12 8,-31 13,-41 3,-6 20,-22 18,-35 -5,-40 -3,-64 1,-75 6,-14 15,-8 17,-23 1,-18 80,-118 95,-121 14,-3 22,-5 27,-6 7,-2 13,-4 16,-10 5,-11 4,-24 6,-31 3,-8 9,-9 9,-13 -1,-9 -7,-10 -7,-22 9,4 7,9 25,7 20,-2 62,-38 71,-40 41,-6 42,-28 49,-18 13,15 19,8 30,7 5,-1 15,3 23,8 5,3 1,16 6,30 6,17 18,34 18,39 1,70 39,63 54,78 5,4 8,6 12,6 5,0 2,-7 7,-11 9,-8 16,-22 22,-35 3,-6 8,-11 11,-16 3,-7 2,-14 5,-17 1,-1 10,-17 11,-17 27,28 14,-42 7,-48 -9,-8 -12,-18 -13,-33 7,-8 16,-21 25,-37 4,-6 13,-10 15,-16 2,-13 7,-24 7,-24 4,-1 6,15 15,11 4,-2 15,3 19,0 3,-2 4,-10 7,-13 5,-5 10,-3 15,-9 9,-10 16,-28 14,-31 -7,-9 -6,-15 -6,-20 2,-11 11,-12 9,-19 -8,-29 8,-34 13,-47 2,-6 2,-12 3,-16 3,-8 4,-14 6,-19 2,-4 -1,-13 2,-18 2,-2 8,0 10,-3 1,-3 0,-7 2,-11 1,-5 21,-23 29,-23 11,1 15,1 22,0 21,-4 24,-16 37,-17 6,-1 15,-6 18,-12 6,-8 4,-24 4,-40 1,-14 5,-29 2,-42 -3,-17 -10,-26 -14,-34 -12,-21 92,-29 93,-42 2,-14 0,-22 3,-26 30,3 87,36 136,-1 12,-9 18,7 32,17 4,3 14,4 22,3 18,-3 14,3 25,-15 5,-7 13,-9 19,-10 6,-2 10,-3 13,-1 12,5 4,13 2,25 -1,9 1,20 -1,29 -2,11 -7,18 -6,23 1,7 4,12 4,16 -2,14 -13,13 -11,19 6,31 -6,57 -3,70 1,4 6,6 14,6 15,0 16,1 29,-5 11,-5 10,-13 26,-20 12,-6 21,-14 24,-21 7,-14 6,-28 27,-37 4,-2 65,17 65,17 13,12 24,19 29,14 9,-9 6,-50 -4,-62 -8,-9 -13,-9 -17,-15 -4,-5 -5,-12 -6,-18 -3,-11 -5,-21 -3,-26 4,-8 14,-10 21,-17 9,-9 14,-25 14,-51 0,-8 11,-12 24,-16 5,-1 10,-7 15,-8 4,0 7,4 10,5 6,1 13,-2 15,1 4,3 5,8 8,10 3,4 5,0 8,1 4,1 8,5 10,3 6,-11 1,-47 -1,-53 -10,-52 9,-33 10,-47 4,-48 -16,-23 18,-49 3,-3 7,-6 13,-7 8,-1 16,3 26,4 7,0 14,-2 21,-1 16,3 29,6 30,5 5,-6 8,-3 12,-5 4,-3 8,-8 13,-8 7,-1 12,3 17,1 1,-1 4,-7 7,-16 3,-8 11,-16 14,-26 4,-13 2,-27 2,-33 -2,-26 -2,-56 -2,-63 0,-26 -41,-38 -49,-37 -1,0 5,-11 9,-21 2,-6 6,-18 7,-21 3,-12 18,-18 25,-32 3,-6 3,-11 4,-17 0,-7 0,-15 -6,-19 -10,-7 -8,-14 -6,-22 2,-10 8,-21 2,-27 -5,-5 -3,-21 -4,-34 -1,-11 -6,-26 -15,-17 -3,3 -6,6 -9,8 -6,4 -16,-6 -21,-7 -9,-1 -16,0 -22,-8 -7,-9 -8,-19 -19,-20 -5,-1 -9,-6 -13,-13 -1,-3 0,-5 -2,-8 -7,-10 -10,-26 -13,-34 -2,-7 7,-10 14,-21 2,-4 4,-10 7,-14 5,-7 11,-12 16,-17 8,-7 15,-12 19,-8 20,19 13,1 31,5 48,9 77,-28 99,-27 7,0 13,0 18,-1 13,-2 15,-12 22,-17 5,-4 16,0 22,-9 5,-8 7,-14 13,-16 5,-2 12,-1 16,-4 6,-4 6,-8 10,-14 2,-4 7,-7 8,-11 4,-9 4,-23 7,-32 2,-7 7,-9 11,-15 3,-6 3,-12 5,-15 2,-4 6,-2 7,-4 1,-5 -3,-13 -2,-22 0,-5 5,-10 7,-19 2,-6 -2,-13 -7,-22 -1,-4 -1,-12 -4,-16 -3,-3 -8,-5 -10,-9 -7,-9 -9,-18 -12,-20 -4,-3 -8,-6 -10,-9 -4,-4 -3,-8 -4,-12 -2,-6 -4,-11 -1,-16 4,-5 11,-7 15,-14 9,-18 28,-13 32,-20 4,-5 1,-17 -1,-33 -5,-37 1,-6 -22,-40 -4,-6 -6,-21 -11,-40 -2,-7 -7,-14 -10,-21 -1,-6 -10,-11 -12,-17 -4,-15 -4,-29 -5,-40 -1,-10 -7,-16 -8,-17 -4,-3 -3,-9 -6,-12 -7,-5 -17,-6 -23,-10 -24,-18 -40,-24 -54,-26 -9,-1 -19,-1 -24,-7 -7,-9 -2,-24 0,-37 0,-6 -1,-13 -6,-19 -2,-2 -7,-2 -10,-5 -5,-4 -8,-12 -17,-15 -2,-1 -31,-11 -32,-22 -2,-12 -55,-15 -76,-27 -1,-8 -2,-19 0,-32 1,-7 4,-8 11,-17 7,-9 16,-18 21,-28 2,-3 4,-7 5,-10 2,-5 -13,-28 -16,-34 -2,-5 1,-9 -2,-14 -2,-5 -21,-25 -20,-28 1,-12 5,-25 7,-32 3,-8 4,-14 -2,-17 -4,-2 -11,1 -23,0 -1,0 -10,-6 -20,-12 -9,-6 -19,-11 -14,-23 1,-2 3,-7 2,-9 -1,-3 -5,-3 -11,-6 -5,-3 -12,-8 -18,-8 -8,-1 -12,2 -21,6 -6,-4 -6,-10 -9,-14 -4,-4 -11,-6 -14,-10 -8,-11 -18,-22 -58,-33 -25,-7 -39,-18 -62,-9 -25,9 -21,-15 -52,-17 -5,-1 -6,-21 -23,-33 -5,-3 -11,-4 -18,-6 -37,-12 -13,-20 -63,-13 -36,5 -7,-38 -48,-66 -4,-2 1,-8 4,-16 2,-5 0,-12 4,-16 4,-4 10,-4 14,-5 7,-2 12,-9 17,-13 8,-6 17,-14 16,-23 0,-3 -4,-6 -6,-9 -11,-21 13,-11 -15,-45 -10,-12 7,-32 -14,-62 -1,-1 -4,-13 -4,-15 -2,-4 -15,-26 -17,-27 -32,-19 -9,-14 -28,-28 -43,-31 -23,-40 -32,-51 -27,-39 -20,13 -55,-52 -3,-6 -8,-8 -9,-12 -7,-27 32,-25 33,-37 4,-38 5,-10 24,-34 6,-9 26,23 26,24 9,46 19,6 31,18 18,19 25,27 31,28 10,1 19,-13 34,-3 3,1 1,5 6,9 2,2 10,1 20,-2 4,-1 5,-6 10,-7 5,-1 12,2 16,0 6,-2 9,-7 10,-9 14,-29 89,-30 94,-35 13,-13 20,-14 23,-11 7,6 -1,37 33,37 4,0 10,-4 16,-4 6,1 13,6 20,5 17,-4 33,-9 38,-24 2,-5 8,-8 16,-8 8,-1 19,3 27,1 9,-3 16,-11 16,-24 13,3 13,5 22,18 13,17 62,5 62,5 31,-9 38,7 56,-3 3,-1 10,-2 17,1 6,3 12,9 21,9 9,0 28,-12 50,-22 24,-11 48,-25 68,-35 5,-3 13,0 18,-3 10,-4 13,-12 13,-13 -8,-12 -8,-23 -4,-33 1,-4 1,-13 3,-17 12,-17 36,-26 41,-25 4,0 10,0 15,-3 5,-3 7,-11 11,-15 5,-5 13,-3 14,-4 6,-13 11,-25 19,-31 33,-27 89,-5 91,-32 -5,-20 -1,-12 1,-21 2,-7 2,-15 4,-20 4,-10 9,-15 15,-18 3,-2 8,0 12,-2 3,-1 5,-5 9,-6 3,-1 7,-5 12,-7 5,-2 11,-3 14,-5 4,-3 3,-15 6,-26 1,-3 5,-5 6,-8 1,-3 4,-3 4,-6 1,-5 -1,-11 -1,-12 -9,-5 -9,-19 -3,-20 4,-1 9,5 14,3 3,-1 7,-8 7,-12 1,-10 7,-16 12,-24 6,-9 11,-22 18,-30 5,-5 6,-11 9,-17 3,-5 10,-8 13,-12 5,-9 10,-15 16,-18 7,-3 18,2 25,2 11,1 23,-2 31,3 9,5 16,11 22,11 11,0 30,3 49,10 35,13 69,36 75,32 16,-10 25,-18 33,-19 22,-6 33,15 45,15 20,-1 27,8 37,11 12,4 25,-1 54,-15 20,-10 32,-18 43,-20 19,-3 32,0 54,2 11,0 32,0 53,2 28,3 67,8 75,7 11,-1 -12,-76 -12,-99 0,-96 19,-80 30,-97 43,-66 68,-65 83,-72 33,-15 98,-8 100,-9 72,-44 84,22 96,27 29,15 13,38 30,48 11,6 33,0 45,1 7,10 10,44 10,57 31,22 69,27 75,53 18,4 4,16 30,15 4,0 9,-2 17,-3 10,-1 16,4 17,14 1,12 -4,30 5,36 29,22 4,22 29,27 13,3 33,95 58,102 45,12 46,40 76,67 4,4 11,6 17,10 0,0 5,17 13,31 6,10 14,18 18,21 20,16 -3,37 9,45 2,2 5,1 10,1 3,1 7,1 8,3 5,7 4,16 2,29 0,6 -4,13 -5,19 -2,13 0,26 0,35 0,20 5,26 5,41l2 3c-1,14 -1,18 2,23 7,12 22,0 28,16 9,27 9,10 24,19 15,9 24,19 29,28 3,6 0,11 0,15 0,5 4,9 2,12 -3,3 -9,9 -14,6 -12,-7 -19,-14 -24,-14 -13,-1 -14,12 -24,-4 -3,-6 -7,-14 -12,-17 -12,-6 -17,4 -31,10 -6,2 -15,-1 -22,0 -13,2 -25,5 -29,-2 -19,-28 -62,13 -67,-20 -2,-11 -12,-12 -23,-6 -5,2 -10,8 -16,12 -9,5 -19,6 -29,10 -11,4 -21,6 -29,3 -43,-15 -19,4 -52,-2 -32,-5 -30,-34 -44,-12 -5,9 -7,19 -9,26 -3,8 -7,13 -7,19 0,6 5,9 7,13 5,10 8,20 9,29 3,34 66,46 59,63 -7,19 3,20 10,19 7,-1 14,4 20,16 11,21 18,25 17,31 0,15 -27,14 -49,30 -6,4 -9,11 -13,13 -21,9 -37,0 -45,8 -3,3 -5,7 -8,9 -5,3 -10,-1 -15,-1 -6,1 -12,5 -18,4 -20,-3 -36,-13 -38,-4 -7,45 -21,38 -27,61 3,11 26,31 44,51 10,11 17,25 27,26 4,1 7,-3 11,-6 22,-14 51,7 64,-8 10,-12 21,0 22,-7 10,0 20,0 26,2 7,3 11,9 15,6 7,-3 10,-7 15,-4 4,3 5,9 10,13 3,4 10,5 12,11 3,5 -1,16 2,22 1,5 4,4 6,8 2,4 1,8 3,12 2,3 6,4 9,7 5,6 9,14 13,17 14,12 2,27 13,27 10,1 19,1 26,1 9,-1 15,3 21,1 8,-3 12,-10 17,-14 9,-8 18,-10 44,-17 1,0 15,-5 25,-5 6,0 10,1 12,6 8,28 36,39 50,51 7,7 9,17 4,25 -4,7 -1,12 -1,17 0,6 -3,11 1,15 2,3 7,4 11,7 8,7 17,15 22,20 41,48 85,-23 103,14 29,57 49,26 49,70 0,21 5,21 12,18 7,-4 17,-11 22,-11 21,1 24,10 49,14 8,1 19,1 34,0 43,-3 29,21 38,19 4,-1 8,-4 13,-3 3,0 7,1 9,3 3,2 4,6 7,8 10,6 19,12 20,19 1,8 15,40 15,41 -3,32 15,35 18,45 6,24 6,31 11,33 5,3 12,1 20,-2 4,-2 12,-6 18,-5 4,0 6,4 9,7 5,4 9,10 15,13 6,2 12,-7 17,-3 7,6 19,15 20,20 4,25 64,57 66,56 3,-2 7,-7 14,-5 5,2 9,10 16,14 5,3 10,6 16,8 4,2 9,-2 13,-1 5,2 9,8 13,8 33,0 34,14 55,13 12,-1 23,-17 26,-26 5,-19 -9,-40 -9,-57 1,-7 7,-14 36,-33 18,-11 31,-20 42,-24 4,-1 7,2 10,2 26,-7 34,2 41,-2 3,-1 9,-3 15,-2 5,1 10,5 17,5 3,0 6,-6 9,-6 11,0 22,-5 33,-7 6,-2 12,0 18,-3 6,-4 12,-12 16,-18 5,-11 55,22 67,31 2,1 7,3 15,4 8,1 25,-2 37,0 8,2 11,9 19,10 22,2 38,-1 39,6 2,4 5,9 8,16 2,5 2,12 7,17 4,6 13,4 20,7 6,2 13,10 15,8 9,-7 17,-4 25,-3 10,2 18,3 24,10 16,21 20,58 30,59 5,1 13,3 17,8 2,3 0,9 2,12 3,6 9,6 12,11 7,10 5,22 18,25 49,11 28,21 45,36 16,14 21,27 26,37 3,8 5,16 10,20 5,3 11,1 20,1 10,0 30,44 34,53 7,16 45,3 54,-3 21,-15 52,-13 69,-19 4,-2 3,-5 5,-7 5,-6 10,-13 10,-21 0,-4 -4,-5 -4,-8 0,-4 -4,-7 -3,-9 11,-16 24,10 55,-9 24,-16 54,0 60,-12 13,-25 22,-26 24,-29 1,-2 0,-5 0,-27 0,-13 0,-34 -2,-52 -4,-29 -9,-59 7,-69 48,-29 27,-29 54,-48 13,-9 28,-34 35,-26 13,17 24,27 25,51 0,3 2,11 5,15 5,7 14,9 20,13 6,4 8,12 9,12 23,11 32,41 41,69 2,7 8,13 10,20 2,10 1,18 2,26 1,15 4,26 15,22 43,-16 32,-1 44,10 33,26 29,19 35,36 1,4 0,9 3,15 2,4 2,8 4,11 14,4 24,3 32,0 13,-5 21,-13 39,-6 4,1 11,3 15,-1 5,-3 7,-11 13,-13 8,-3 20,0 25,8 12,19 26,8 46,5 13,-2 19,-7 25,-12 3,-2 6,-9 9,-10 3,-2 11,2 14,6 24,29 40,37 38,69 -4,54 20,42 19,58 0,7 1,11 2,15 2,5 8,5 11,10 2,4 1,12 4,19 2,4 3,9 5,15 0,39 19,11 17,59 -1,24 37,10 2,59 -17,24 -11,20 -36,21 -6,0 3,12 -20,23 -9,4 15,30 -25,29 0,0 -22,6 2,11 28,6 0,27 33,61 14,13 -3,30 -3,42 6,1 12,-1 16,4 2,2 5,5 9,9 20,18 -3,37 22,50 5,2 11,9 14,14 4,7 6,16 7,26 1,4 5,7 6,11 3,13 2,27 12,40 14,19 -2,72 3,103 3,16 -2,19 -4,25 -1,7 -2,14 -1,20 0,1 9,30 9,31 2,6 9,11 9,18 1,6 -8,10 -8,13 -2,7 -1,8 -2,12 -18,63 6,27 5,53 0,10 0,17 1,24 0,7 6,9 9,15 6,10 9,23 8,39 -2,49 6,28 15,39 20,26 61,-7 84,13 5,3 6,12 9,19 3,6 -6,11 -9,21 -3,8 4,18 4,27 0,9 -7,19 -3,25 4,5 4,13 2,21 -2,6 -8,14 -11,19 -4,7 -4,11 -5,12 -7,6 -11,7 -13,12 -5,11 1,25 8,35 4,6 10,9 9,12 -4,49 38,21 34,66 -1,12 -3,20 -2,25 6,15 36,0 27,26 -5,14 -11,18 -12,20 -2,6 29,-5 41,10 4,-3 12,-11 22,-17 2,-2 7,1 10,-1 35,-25 91,-65 111,-73 55,-24 -10,-95 12,-108 21,-13 7,-16 14,-21 16,-12 24,-63 24,-63 14,-17 15,-2 31,-1 4,0 7,-2 14,-5 4,-1 6,-6 10,-9 5,-3 13,0 22,-8 3,-3 13,4 25,10 9,4 20,6 28,11 8,4 13,11 15,14 7,9 18,3 34,4 12,1 28,6 42,18 11,9 14,-8 25,-9 7,-1 17,3 11,11 -7,9 -3,16 -2,23 2,6 1,12 8,18 16,14 41,27 44,55 7,51 41,13 41,31 0,47 30,32 20,124 0,40 9,12 10,31 0,5 -7,5 -9,17 -2,13 -7,7 3,27 19,40 -27,26 11,55 15,11 7,45 30,63 5,5 15,35 6,46 -8,9 -23,35 -24,47 -1,22 -20,7 -1,33 1,2 -2,3 1,8 0,36 -7,30 -10,53 -2,15 -6,47 -11,60 -10,23 -39,22 -39,79 0,15 6,79 19,85 22,10 31,41 31,64 0,1 -2,3 -2,8 0,9 18,34 23,38 64,61 -6,79 54,109 23,11 39,15 39,47 0,29 2,32 25,37 0,0 32,50 32,51 14,44 13,18 33,46 4,15 17,28 19,37 0,3 7,8 8,18 0,4 5,12 9,14 11,6 10,9 19,14 32,17 15,12 15,46 0,21 5,7 8,26 2,10 0,17 3,30 0,2 1,2 2,5 2,6 2,24 2,24 4,7 -6,37 -3,40 8,8 4,10 15,17 10,6 19,18 26,20 3,1 44,-11 50,-12 19,-4 37,-34 44,-51 3,-6 6,-23 7,-23 19,1 15,-4 25,-8 10,-4 24,-27 36,-18 17,14 22,-3 27,10 4,11 15,11 20,13 13,5 31,-9 30,-20 0,-11 16,-45 21,-39 15,14 6,11 27,25 21,13 33,-7 41,5 3,5 12,3 22,19 3,4 32,5 36,1 7,-5 21,-5 24,-3 13,9 32,9 43,-2 5,-4 43,-1 43,-1 1,1 26,21 33,31 20,26 12,1 26,5 12,4 19,-16 25,-9 6,7 21,6 22,17 3,8 12,23 13,30 1,9 10,7 9,35 0,16 -4,6 -12,13 -1,0 -3,20 4,22 13,4 11,8 28,11 8,1 20,7 21,16 1,7 17,8 9,26 -1,3 2,12 0,22 0,1 0,3 0,3 0,1 1,4 0,4 -4,12 0,19 -3,29 -6,25 13,20 15,26 9,29 20,2 42,13 22,12 14,17 23,27 0,0 13,24 13,28 4,40 6,15 24,31 19,17 25,4 37,-5 18,-15 18,-24 39,-12 3,2 29,-9 59,4l1 0c6,2 16,2 16,8 -1,30 1,17 18,24 1,0 23,33 23,35 6,22 35,-10 45,-4 8,5 36,11 34,-4 -2,-22 5,-23 4,-33 0,-7 5,-19 14,-20 12,-1 18,-7 27,-10 5,-2 7,-7 11,-9 3,-1 8,1 11,-1 7,-3 14,-5 27,-7 13,-2 13,10 20,15 4,3 11,3 15,-1 22,-24 29,11 42,-10 15,-25 19,1 36,-3 9,-2 11,0 18,1 15,2 26,13 35,2 11,-12 11,6 28,4 30,-5 29,12 41,10 30,-6 21,4 33,2 14,-1 14,3 13,11 -1,19 -14,25 -8,47 0,32 23,31 17,59 -3,14 -3,37 -6,51 -2,9 8,40 7,55 0,0 3,18 3,19 2,9 5,15 2,18 -2,3 -8,4 -15,4 -15,0 -15,24 -33,12 -4,-2 -31,8 -32,9 -4,15 -2,28 -27,29 -16,0 -8,-2 -17,12 -1,2 5,23 5,32 0,2 0,2 0,4 -11,41 -5,46 1,86 5,27 7,63 -21,78 -5,3 -24,-1 -29,20 -5,12 -17,45 -5,54 0,0 15,36 10,45 -3,6 2,2 -4,8 -4,3 -7,23 -2,28 5,6 28,43 30,50 3,10 -4,5 16,16 0,0 13,11 12,16 0,1 -3,1 -6,1 -5,0 -7,-1 -9,0 -3,1 -1,12 -1,23 0,20 2,29 0,34 -7,2 -14,2 -37,3 -21,0 -39,-26 -67,-4 -16,12 -14,12 -14,33 0,16 4,5 -2,25 -3,8 -7,19 -12,26 0,0 -3,10 -3,10 0,27 -16,-10 -13,48 1,2 9,21 16,18 16,-7 33,-2 38,15 2,8 9,19 3,21 -5,3 -20,15 -23,13 -8,-3 -10,4 -15,12 -1,2 5,16 5,25 0,6 4,15 3,28 0,1 1,0 1,3 -7,2 -21,18 -12,29 8,10 -7,10 11,19 7,3 17,32 17,39 0,12 -10,11 -11,27 -1,18 -19,18 -13,33 4,8 -6,28 -4,38 1,12 -4,20 -16,20 -15,0 -16,3 -28,-5 -7,-4 -14,17 -18,21 -8,8 1,8 -15,10 -1,1 -15,12 -15,17 1,4 -21,8 -22,12 -7,-1 -7,31 -20,33 -3,1 -6,2 -8,3l-1 -2c-16,-21 -37,-27 -84,4 -64,44 29,225 93,232 94,11 193,12 285,-14 56,-17 239,3 272,73 19,43 80,71 131,59 61,-15 125,7 180,-27 5,-3 71,-11 104,-28 0,1 0,1 0,2 0,20 5,15 12,19 30,15 24,4 53,6 26,3 23,-1 35,17 9,16 -1,23 23,23 48,-2 32,13 39,24 3,4 30,-6 38,9 5,10 17,12 22,15 4,3 22,10 26,7 14,-9 21,1 33,2 1,0 66,19 69,20 7,3 8,-12 8,-17 3,-11 3,-14 3,-26 0,-29 -1,-17 9,-26 10,-9 49,-20 61,-20 51,2 34,-36 46,-46 11,-8 19,-10 20,-19 0,0 23,-21 25,-23 6,-6 19,38 19,39 1,2 7,20 7,20 13,8 23,23 33,14 7,-5 31,17 33,23 8,23 0,7 14,22 5,5 26,1 32,-1 42,-16 30,-2 40,6 7,6 7,7 12,17 4,7 8,20 13,4 8,-23 7,-16 27,-23 8,-3 40,7 48,11 27,12 17,6 21,25 0,21 -4,6 7,29 4,9 1,53 -3,64 0,1 -3,19 -7,29 -3,9 -7,24 -11,30 -1,1 -9,24 -14,30 -1,1 0,1 -1,2 -2,1 -20,27 -20,28 -5,17 -11,18 -5,38 3,11 21,8 29,5 14,-5 42,-5 55,1 13,5 14,4 28,12 16,9 5,-1 16,13 11,13 12,29 23,36 15,10 13,11 32,13 9,1 39,22 48,15 24,-21 24,-4 38,2 9,4 16,18 21,11 13,-18 14,-11 25,-15 11,-5 37,2 46,-5 8,-7 12,-34 22,-34 12,1 20,-7 23,-2 14,19 22,4 22,29 0,24 25,-5 36,-5 6,0 12,24 12,26 3,10 1,26 1,37 0,11 -1,25 13,24 18,-1 11,24 14,30 2,4 3,18 3,18 15,23 13,1 13,32 0,18 3,19 2,38 -5,13 -7,12 2,25 2,4 17,20 17,20 6,11 5,7 9,11 9,8 8,-10 18,22 6,21 31,32 33,41 9,37 11,15 30,35 6,6 28,28 29,35 2,25 18,-10 19,-16 2,-6 5,-27 9,-27 28,2 10,2 30,-10 17,-12 30,-4 30,-25 0,-5 2,-18 2,-18 3,-14 3,-27 18,-28 14,-1 14,-18 9,-25 -9,-14 -7,-25 -10,-36 -7,-27 7,-29 15,-50 14,-39 19,-17 33,-25 2,-1 10,-7 11,-9 18,-21 28,5 60,-19 5,-4 29,-14 32,-19 5,-9 42,-3 49,0 15,5 51,4 65,-3 7,-3 22,-15 24,-15 2,0 13,20 15,23 4,7 13,14 22,12 22,-6 18,-11 47,-13 3,0 11,1 13,6 4,10 38,-10 40,-14 13,-24 27,-6 38,-6 5,0 16,-43 19,-42 27,11 33,-5 47,2 11,6 10,6 19,12 11,8 36,-8 47,-13 21,-10 36,-26 53,-42 17,-16 28,-16 37,-24 9,-7 40,-12 49,-5 5,4 2,54 2,64 0,25 35,22 27,34 -14,21 3,27 3,43 -1,1 0,2 0,2 4,20 17,31 17,35 2,11 9,18 8,23 -2,32 37,28 38,32 8,20 37,26 39,30 9,12 23,22 31,32 5,7 4,24 1,30 0,5 -1,28 1,30 10,15 6,5 5,21 -1,8 -13,38 -8,38 4,1 31,26 32,26 41,9 27,18 41,24 14,6 16,33 21,43 2,2 14,17 14,17 17,12 34,26 40,46 3,9 3,16 8,24 0,0 7,20 7,20 -12,14 -31,24 -43,40 0,0 -12,14 -13,14 -3,0 -36,-2 -38,-1 0,9 5,40 2,43 -23,21 -7,28 -24,40 -1,1 -6,16 -11,22 -8,8 -1,5 -15,11 -28,12 -22,34 -34,38 -23,8 -11,15 -32,-7 -20,-19 -43,-13 -48,-33 -2,-6 -10,-8 -15,-3 -5,6 2,7 -7,14 0,1 -2,3 -2,3 -15,14 6,15 -2,24 -7,9 -1,13 -5,18 -5,6 -19,18 -27,15 -19,-8 -6,26 -18,36 -3,2 -2,8 1,11 7,10 2,17 2,27 0,22 -2,10 4,22 14,30 31,14 32,28 2,6 7,37 0,40 -7,4 -20,12 -23,19 -6,14 1,11 -13,19 -5,3 -14,20 -14,28 0,10 -5,11 2,22 12,18 -6,22 -7,41 0,9 -20,11 -30,5 -3,-2 -14,-5 -24,-13 -2,-1 -19,-11 -22,-5 -8,19 -7,1 -7,26 0,0 0,1 0,1 -6,14 -7,21 -13,34 -2,3 -11,-7 -20,-9 -14,-3 -7,-6 -21,7 -13,13 -8,28 -16,40 -5,8 4,39 10,45 7,9 25,28 34,32 2,2 -2,8 7,16 7,6 2,14 3,20 7,14 8,24 19,35 10,9 1,21 14,21 18,0 -3,12 4,36 0,0 11,19 13,20 8,1 21,17 19,29 -2,13 0,13 -4,28 -1,0 -3,11 -3,14 0,2 1,7 1,8 7,10 3,23 6,35 4,21 1,16 1,33 1,11 -33,59 -25,67 14,14 21,1 21,24 0,15 12,2 12,17 -1,15 -13,-1 -8,28 1,5 -9,7 -11,13 -13,5 -13,19 -22,23 -13,6 -24,43 -31,41 -17,16 -47,11 -65,32 -1,1 -30,24 -34,25 -7,1 2,15 -25,9 -13,-3 -24,-2 -36,-4 -1,0 -17,-12 -23,-14 -7,-3 -10,-9 -19,-10 -6,0 -9,-6 -26,-5 -10,0 -3,-6 -20,3 -2,2 -11,0 -18,5 -9,0 -20,4 -25,-5 -3,-5 -15,2 -18,3 -6,20 7,18 -24,31 -4,2 -22,15 -17,19 27,19 5,20 2,25 -8,11 16,13 -5,28 -14,11 -36,-6 -35,7 0,11 -17,20 -26,7 -1,-1 -24,5 0,26 3,3 26,30 26,31 0,7 -1,5 -3,11 -3,10 0,21 -4,32 -5,20 9,16 13,31 1,7 13,15 15,15 7,0 16,5 17,13 0,14 21,20 23,28 1,10 6,5 8,7 11,14 23,9 23,31 0,17 9,14 13,24 7,11 10,7 4,22 -2,3 21,21 -2,17 -7,-2 -10,7 -1,15 7,6 -10,-3 -10,12 0,38 -16,-9 -37,-3 -11,3 -17,5 -27,-1 -4,-2 -20,-7 -27,-14 -15,-13 -22,-2 -36,1 -6,2 -1,17 -12,4 -6,-6 -10,4 -6,10 2,3 -11,34 -10,48 1,6 19,5 2,17 -4,3 2,20 10,26 0,0 -1,4 1,6 2,4 6,7 7,8 2,2 5,4 5,6 -1,3 -7,3 -12,4 -2,1 -3,3 -4,4 -9,13 6,17 -19,33 -11,7 -27,-10 -40,15 -8,15 -41,13 -45,17 -4,3 -15,7 -19,15 -6,15 -38,1 -37,22 1,6 -13,6 -19,20 -5,10 -26,15 -35,17 -14,2 1,13 2,19 1,3 4,1 4,7 0,5 0,5 1,10 2,10 9,26 9,30 0,8 11,12 12,12 19,-3 4,20 -1,30 -4,10 -13,3 -24,3 -13,0 -23,-5 -34,-2 -24,6 -24,-14 -29,-9 -12,10 3,10 -24,12 -10,0 -8,10 -4,16 8,11 3,18 9,23 16,17 -4,11 -4,20 1,21 -17,4 -17,19 0,22 21,15 -10,31 -15,7 -5,4 -19,17 -8,7 -6,1 -17,7 -16,9 -19,-6 -34,17 -10,18 -22,12 -22,27 1,13 -13,-1 -23,9 -4,4 -10,-4 -22,10 -9,11 3,12 -18,28 -4,3 -12,12 -15,18 -1,0 -31,18 -33,22 -4,12 -2,1 -3,13 -1,4 -10,-5 -13,12 -2,16 -19,0 -19,15 0,16 -18,10 -8,24 0,0 -1,18 -1,22 2,15 -22,-5 -36,4 0,0 -3,6 -4,8 -9,10 -3,6 -15,16 -10,7 9,27 9,40 0,4 1,5 3,9 0,1 3,7 3,7 4,8 8,27 11,29 8,4 20,16 23,23 6,15 21,21 22,24 4,16 5,17 16,30 17,20 -6,34 -6,35 -1,21 0,20 12,36 4,1 12,18 16,18 16,2 1,18 18,27 25,11 5,48 19,65 6,8 0,25 -7,26 -25,0 -8,14 -8,16 -1,23 14,14 15,17 3,24 9,6 23,14 4,2 9,11 18,14 12,6 9,21 17,28 9,8 13,35 10,47 -4,16 0,8 -10,23 -3,4 3,31 -9,18 -5,-5 -6,7 -9,11 -12,16 -12,14 -25,25 -4,4 -14,14 -19,17l2 -1c-1,1 -2,3 -2,4 -7,15 -15,4 -16,3 -15,-8 -6,13 -7,22 -1,16 7,19 14,29 8,11 -10,11 -10,14 -2,13 -20,10 -19,13 0,7 -4,8 -6,12 -9,19 -26,10 -26,25 0,4 -1,15 -8,15 -30,2 -9,17 -18,26 -12,11 -1,6 -11,21 -5,7 -10,14 -13,22 -7,20 -5,13 -16,31 -16,29 -8,31 -16,59 -1,4 -8,23 -11,24 -1,1 -20,14 -21,14 -15,6 -10,12 -30,13l-2 0c-4,0 -16,-6 -25,-2 -3,2 -25,5 -29,3 -13,-6 -21,17 -27,-6 -1,-4 -18,-4 -28,-27 -1,-4 -9,-5 -10,-19 0,-9 -36,-32 -44,-39 -16,-12 -13,-19 -20,2 -14,4 -8,-2 -22,6 -11,6 -21,9 -28,19 -15,22 -17,-6 -25,-8 -8,-2 -12,-7 -15,3 -1,6 -35,36 -39,31 -4,-6 -19,-2 -23,13 0,1 -1,2 -2,5 -6,4 -25,20 -24,28 1,40 15,8 21,27 4,13 -1,5 7,18 5,6 -4,5 11,13 7,4 -4,25 5,26 13,2 -19,21 -20,25 -4,1 -7,8 -23,7 -4,0 1,9 -8,1 -7,-6 -6,18 -9,20 -10,8 -5,23 -19,5 -4,-6 -9,-5 -12,-20 -1,-2 -5,-10 -7,-11 -25,-16 -12,-6 -37,-12 -9,-3 -28,-20 -23,-3 3,12 -14,-4 -30,-4 -14,0 -27,9 -40,14 -22,10 12,74 -34,35 -5,-3 -27,-21 -28,-24 -3,-12 8,-16 -1,-34 -5,-10 -18,11 -22,-7 0,0 -20,-19 -20,-22 -1,-15 0,-19 -10,-30 -1,-1 -5,-10 -10,2 -1,5 2,27 -7,23 -10,-4 -18,11 -26,14 -7,4 12,36 -12,30 -9,-2 -12,8 -20,7 -2,0 -6,2 -7,5 0,3 3,6 5,8 7,18 19,25 19,48 0,19 19,31 -10,58 -7,7 -10,-5 -12,5 -2,8 12,19 12,39 0,14 -27,-7 -25,22 0,2 -5,9 -7,10 -9,26 3,24 3,38 0,6 -12,-6 -13,10 -1,13 -24,19 -23,42 0,9 -20,6 2,39 1,3 2,15 -4,18 -11,5 4,20 3,33 0,1 3,7 3,8 0,1 0,12 0,12 -3,10 8,21 -1,31 -7,6 3,17 2,25 -5,25 -28,2 -20,39 1,8 6,16 15,14 19,-4 19,17 32,21 12,3 5,20 20,15 18,-6 13,-6 25,3 4,5 9,7 14,9 30,13 -36,10 -29,21 10,16 14,13 29,13 3,0 5,10 10,2 4,-8 11,-8 11,-6 2,29 -10,30 -11,34 -5,28 20,26 18,42 0,7 5,19 2,21 -19,10 17,12 17,20 1,20 32,-20 34,-14 6,14 19,-4 22,-4 15,-1 5,-17 15,-26 17,-15 20,-3 29,4 1,1 13,-7 13,-7 3,-11 17,-15 27,-12 17,6 10,7 18,-14 1,-3 20,12 22,32 0,2 11,8 14,9 0,1 5,1 4,7 0,6 10,14 10,14 20,2 7,7 3,12 -9,12 -4,13 3,15 0,1 4,47 -5,56 -36,33 11,25 11,38 0,19 -62,3 -27,29 6,5 11,13 18,11 10,4 14,15 19,19 9,6 11,10 16,14 11,9 14,18 21,23 10,8 21,28 30,33 0,0 21,20 23,22 13,14 37,28 46,41 4,6 23,16 21,18 -5,5 0,6 -3,14 0,5 -2,9 -5,12 -4,4 -24,8 -5,28 19,20 -2,29 5,37 26,26 13,11 13,33 0,14 40,32 39,40 -3,22 8,21 6,32 3,9 -1,14 -4,21 -5,11 -13,-7 -23,28 -3,7 -4,-6 -7,12 -1,7 -27,23 -24,28 4,5 -17,-1 -17,-5 0,-10 -12,2 -15,10 -3,9 -12,16 -16,27 -2,7 -17,5 -20,16 -6,21 -3,17 -25,31 -11,8 -19,9 -31,20 -2,1 -5,3 -6,6 -17,-2 -38,-2 -54,1 -6,1 -38,-29 -43,-29 1,13 13,17 -5,26 -3,2 2,3 -12,4 -8,1 -23,7 -27,-1 -1,-2 -9,-19 -10,-20 -2,-1 -4,6 -7,-1 -3,-5 -7,13 -12,-5 -1,-3 -7,-9 -10,-7 -1,0 -19,3 -20,3 -5,0 -2,-6 -10,-1 -6,4 -4,-6 -16,-1 -5,2 1,2 2,14 2,26 0,10 -16,10 0,-5 15,-16 1,-11 -9,3 -13,20 -30,19 -5,0 -20,34 -20,40 -1,15 -13,12 -21,21 -3,4 -7,-1 2,12 -3,2 -25,24 -22,28 1,2 10,10 10,11 0,0 -13,15 -20,11 -7,-2 -26,-6 -32,-4 0,0 -21,-3 -24,-3 -7,0 -37,1 -37,-6 -1,-16 3,-25 3,-39 -6,0 -11,4 -9,-13 2,-14 7,-14 -6,-29 0,0 -7,-22 0,-26 7,-4 7,-16 5,-22 0,-8 -7,-29 -12,-36 -3,-4 0,-19 -9,-36 -5,-10 4,-35 19,-29 1,1 1,1 2,2 3,1 5,-1 3,-3 -2,-3 -7,-5 -7,-5 0,0 -9,-28 -26,-25 -10,2 -26,-4 -27,-16 -1,-15 -34,0 -28,-45 1,-4 22,-10 4,-28 0,0 -24,1 -34,-14 -3,-4 -10,9 -21,8 -3,0 -9,11 -10,13 -2,0 -32,-18 -32,-19 -5,-10 3,-16 -21,-16 -11,1 -10,-22 -17,-21 -1,-9 -12,10 -15,4 -5,-10 -14,18 -41,9 -21,-7 1,-9 -23,-6 -19,2 -19,-10 -32,-16 -30,-13 -70,-55 -102,-55 -14,0 -27,-9 -55,3 -2,0 2,6 -5,12 -14,12 -59,24 -85,23 -16,-1 -56,4 -59,-3 -20,-43 -9,-26 -44,-15 -2,1 -14,23 -8,30 4,6 -18,18 -32,15 -5,-1 -6,4 -6,10 0,4 0,9 3,12 4,2 4,6 8,9 0,27 -22,19 -5,42 4,6 2,73 -6,80 -10,7 -55,31 -65,30 -2,5 7,64 10,65 7,5 6,44 9,51 5,15 4,13 14,28 6,9 -4,2 9,11 29,22 11,9 29,37 9,13 8,19 23,24 12,5 -9,19 -9,25 -3,1 18,20 11,38 -4,11 28,26 -7,17 -11,-2 -18,17 -28,13 -8,-3 1,11 -15,4 -15,10 -5,22 -17,9 -7,-8 1,8 -12,10 -9,2 -1,11 -13,-2 -2,-2 -4,1 -6,0 -4,-4 -8,-12 -13,-17 -1,-2 1,-6 -1,-8 -2,-4 -7,-7 -8,-13 0,-1 0,-2 0,-4 5,-12 -8,-17 -22,-7 -6,4 -9,-3 -12,-12 -2,-3 1,-7 -1,-9 0,-1 -4,2 -5,-2 -1,-2 -1,-5 -2,-6 -10,-8 1,-8 -20,-19 -12,-7 -6,-9 -19,-9 -2,0 -4,0 -5,0 -4,0 -2,-6 0,-6 2,0 12,0 12,0 1,-4 2,-9 -1,-12 -13,0 -24,7 -22,-12 0,-7 25,5 -5,-16 -11,-8 4,8 -14,-7 0,0 -2,-19 -10,2 -6,15 14,13 -23,15 0,0 -19,-8 -20,-9 -2,-6 -1,-12 -3,-16 -17,-29 -19,-2 -33,-14 -8,-6 -30,17 -37,-2 -1,-3 8,-16 -18,-22 -42,-9 -27,23 -37,20 -10,-3 -34,8 -50,9 -10,1 4,18 -27,15 -11,-1 -21,-25 -37,-6 -3,4 4,13 -8,6 -1,-1 -9,4 -11,11 -1,2 0,7 1,9 8,16 -7,8 11,12 5,19 31,7 10,24 -7,5 5,11 -12,11 -2,0 -12,18 -18,11 0,0 -3,13 -10,20 -9,8 2,5 -16,1 -10,-2 -12,-22 -13,1l-1 2c-7,11 -13,10 -18,22 -1,3 -10,24 -8,27 2,3 10,28 6,28 -28,3 -6,17 -40,38 -18,10 24,2 9,45 -6,2 -27,10 -29,13 -15,40 -7,8 -38,14 -13,3 -28,-15 -35,1 -4,10 -18,8 -22,27 -2,8 -4,-2 -3,18 0,0 -3,0 -5,5 -1,3 0,10 -1,13 -1,7 -3,13 -3,14 -49,0 -22,2 -40,22 -4,4 -4,11 -5,20 0,7 -1,16 -11,25 -11,11 -3,15 -25,24 -25,10 5,49 -33,38 -5,-2 -4,2 -15,-3 -11,-5 -37,34 -37,4 0,-5 -7,-5 -6,-19 0,-7 -12,-16 -18,-15 -2,0 -2,3 -1,7 1,3 1,6 6,12 7,6 -2,13 -13,12 -5,0 4,8 -11,21 -11,11 -18,43 -14,59 4,13 1,23 9,29 0,0 3,18 12,23 3,1 10,12 13,14 3,34 -2,25 -7,54 -1,10 -20,0 -19,31 0,8 -5,26 -16,26 -13,0 -6,16 -17,31 -11,15 15,15 -3,33 -3,2 -22,22 -13,23 3,9 -5,-2 -14,13 -4,7 -7,-8 -22,1 -10,6 7,17 -17,20 -11,1 -4,9 -26,9 3,2 30,26 19,26 -20,-1 3,11 -25,8 0,0 3,25 2,32 0,6 6,1 5,23 0,20 38,42 23,65 -3,4 4,8 -12,12 -1,4 -27,23 -27,38 0,26 -14,37 -29,57 0,0 -3,2 -3,2 -1,0 -5,2 -5,4 -2,13 -19,22 -17,29 3,13 -5,29 0,30 10,2 -1,17 -2,17 -9,2 -7,11 -12,12 -30,6 -30,15 -38,18 -36,10 -7,22 -13,33 -20,2 5,26 12,30 6,3 14,27 16,35 2,11 -23,1 -15,11 13,15 -1,4 9,22 12,24 28,2 28,25 3,13 18,11 16,26 -4,33 16,17 12,51 -6,48 21,13 23,31 0,0 29,33 20,40 -17,15 -23,11 -11,34 8,18 34,37 37,48 9,34 11,18 16,29 -11,1 -23,17 -34,8 -4,-5 -10,3 -22,7 -8,2 -18,3 -27,4 -7,0 -32,1 -38,8 -1,1 -25,7 -35,15 -11,11 1,-23 -12,-20 -3,0 -29,-34 -30,-50 -1,-16 -14,4 -9,-14 -16,-12 7,-15 -31,-5 -10,3 10,7 -1,22 -1,1 3,4 -5,6 0,1 2,4 1,6 0,3 -1,3 -3,5 -1,1 -1,1 -5,-4 -3,1 -6,5 -7,6 0,5 6,8 4,9 -25,13 20,13 -17,30 -2,1 4,9 -17,9 -2,1 -3,4 -7,8 -5,4 -14,9 -20,15 -13,11 -25,21 -33,16 -29,-22 -2,20 -28,6 -10,-5 -3,7 -15,14 -4,2 -21,14 -20,21 0,7 -10,-3 -16,14 -4,11 -60,32 -72,32 -8,-1 -43,3 -57,3 -3,0 -16,1 -18,1 -1,21 -16,3 -39,15 -11,6 -62,4 -71,-4 -20,-15 -7,-2 -33,-8 -8,-1 -4,-8 -19,-2 -2,1 -25,-13 -37,-15 -23,-4 -17,4 -17,-32 0,-2 1,-4 0,-7 -1,0 -6,0 -11,3 -8,3 2,3 -15,7 -1,0 -5,4 -6,7 -1,3 0,5 0,7 -2,3 -3,3 -4,3 -1,0 -2,0 -2,-5 0,-7 -5,3 -10,-8 -1,-1 -5,0 -7,1 -3,5 -2,14 -4,15 -9,0 -8,5 -11,6 -1,1 -4,0 -10,-3 -2,-1 -6,4 -9,8 -2,3 -2,9 -4,12 -2,3 -3,3 -5,3 -2,1 -4,1 -4,-2 0,-2 -1,-5 -1,-10 1,-2 1,-6 0,-7 -3,-7 -10,-10 -4,-20 7,-11 0,-14 0,-23 0,-8 0,-16 -2,-17 -8,-3 -13,-8 -9,-16 6,-14 -14,-4 -18,-15 -10,-22 -16,4 -19,-33 -1,-11 -8,3 -10,-19 0,-7 -14,-1 -7,-13 6,-10 -29,-32 -12,-42 3,-2 -1,-4 8,-6 9,-3 3,-9 5,-12 0,-4 -1,-5 -1,-6 0,-5 2,1 6,-9 3,-7 -6,-14 -5,-20 1,-2 3,-3 4,-4 2,-2 0,-9 0,-16 0,-3 4,-3 5,-6 1,-4 -2,-11 -1,-14 1,-2 2,-4 3,-6 10,-9 -8,-32 8,-46 8,-7 -8,-1 -2,-28 1,-4 -20,-31 -3,-33 0,0 5,-11 -8,-18 -4,-2 5,-9 -6,-16 -5,-4 9,-13 -7,-23 -2,-1 -6,-37 -16,-17 -2,3 -9,-2 -11,-6 -5,-17 16,-16 -14,-26 -7,-2 4,-4 -9,-13 -9,-6 11,-26 -3,-34 -2,-1 -19,-12 -19,-12 -1,-7 2,-39 -10,-36 -8,2 -12,15 -12,-16 0,-17 0,-20 -12,-12 -7,-3 0,-4 -13,-5 -9,-1 -4,-12 -8,-25 -4,-10 15,-19 -6,-13 -9,2 -37,-11 -37,-27 1,-4 0,-10 0,-14 -17,-4 5,-3 -16,-7 -5,-1 -13,-22 -13,-27 -7,-21 9,-3 0,-23 -6,-15 -30,-14 -40,-34 -4,-7 -8,8 -7,-15 0,-8 -18,10 -18,-5 25,0 21,-6 7,-20 -12,-12 -10,3 -19,-10 -4,-7 -23,1 -24,-18 0,-11 -5,-10 -9,-15 -1,-1 -2,-6 -2,-7 -1,-3 -5,-6 -6,-10 0,-4 4,-8 3,-10 0,-3 -3,-2 -4,-3 -4,-6 3,-15 -5,-21 -3,-2 -5,-1 -11,-3 -6,-2 -1,-4 0,-11 0,-7 -16,-38 -16,-38l0 -5c-1,-4 -19,-23 -9,-22 3,0 -1,-17 -12,-8 -6,5 -29,-61 -31,-62 -18,-7 4,-2 4,-9 -1,-13 22,8 14,-4 -4,-6 9,-4 -8,-15 -3,-2 1,-12 -2,-12 -1,-6 -12,4 -18,-13 -5,-15 8,3 2,-17 -2,-8 -14,8 -13,-13 0,-3 -13,-9 -17,-18 -3,-8 -22,-44 -29,-46 -6,-2 -21,-8 -27,-10 -11,0 2,-6 -15,3 -14,7 -27,-4 -43,-8 -25,-7 -18,-11 -50,-13 -7,0 -44,-7 -50,-5 -14,3 -18,-9 -39,-11 -12,-1 -24,-9 -46,-11 -10,-1 -8,-5 -27,-4 -28,1 -46,-9 -67,-25 -12,-9 -12,-26 -18,-32 -8,-1 -38,4 -45,6 -5,2 -11,3 -17,6 -15,5 -21,-14 -38,-4 -14,9 -40,3 -40,3 0,0 -11,21 -27,28 -11,5 -2,5 -22,9 -8,1 -10,23 -25,34 -5,3 -13,20 -11,24 11,28 -12,7 -16,36 -1,3 -14,14 -23,14 -30,2 -6,16 -34,24 -3,2 -10,15 -22,23 -16,10 -27,17 -46,16 0,0 -22,12 -27,14 -15,4 0,5 -29,7 -18,1 -53,16 -55,38 -2,31 -47,18 -51,42 -3,16 -13,23 -21,46 -1,1 -6,8 -7,9 -3,2 -2,4 -5,4 -23,3 -11,8 -19,15 -9,7 -9,20 -13,27 -3,6 -5,10 -8,14 -2,4 -7,6 -9,9 -3,5 -5,13 -9,23 -8,20 -8,31 -31,36 -21,3 -34,-13 -35,-6 -3,25 -29,34 -36,44 -8,11 -48,36 -49,41 -1,15 -7,12 -10,17 -7,11 -40,14 -40,16 1,19 -5,19 -5,24 -2,38 -41,23 -50,26 -15,0 -12,17 -44,15 0,0 -6,6 -18,6 -13,0 -34,5 -42,0 -21,-13 -15,23 -49,34 -23,7 -19,38 -67,27 -23,-5 -5,14 -38,18 -22,3 -16,-7 -35,11 -8,7 -30,-5 -37,20 0,1 -17,18 -19,25 -22,0 -13,9 -35,-7 0,0 -33,8 -38,8 -14,0 1,3 -22,2 -2,0 -13,18 -21,23 -7,5 3,7 -21,6 -14,0 -31,9 -41,-3 -1,-2 -17,10 -35,4 -18,-6 -19,12 -45,-16 -7,-7 -27,-5 -37,2 -8,6 -22,5 -30,1 -1,-1 -23,-6 -23,-6 -17,9 -15,5 -29,10 -4,12 -2,19 -19,29 -6,4 -37,31 -42,37 -13,19 -24,-2 -42,37 -12,24 -60,29 -78,8 -3,-3 -14,-11 -13,3 0,0 -3,15 -3,21 0,29 -9,19 -23,35 -2,3 -7,29 -2,37 11,20 -14,33 -16,56 -2,11 -19,4 -32,19 -3,4 -33,18 -39,38 0,0 -10,15 -11,16 -9,6 -14,22 -39,37 -49,28 -27,26 -50,65 -5,8 -27,16 -33,34 -6,17 -21,11 -34,19 -14,8 -26,-12 -33,4 -5,11 -19,-11 -36,0 -9,6 -35,3 -44,-3 -15,-10 -34,0 -54,-13 -8,-6 -74,-4 -81,-17 -7,-12 -6,1 -26,3 -12,1 -32,21 -60,4 -12,-6 -31,-15 -40,-3 -8,8 -27,-1 -34,4 -5,4 -12,8 -13,12 -1,3 4,4 3,7 -2,5 -5,11 -10,18 -4,5 0,10 -10,22 -4,5 -9,16 -18,28 -4,5 4,6 -17,25 -1,1 0,15 -5,24l-2 2c-16,36 -56,6 -65,26 -8,20 -61,2 -82,15 -1,1 -40,10 -52,14 -34,14 -38,-14 -76,7 -28,16 -39,-16 -45,-15 -10,1 -8,9 -29,-2 -8,-5 -29,-7 -36,-1 -3,3 -19,6 -32,20 -1,2 -33,32 -34,32 -8,6 -10,53 -11,55 1,4 3,6 4,9 2,5 2,10 4,12 4,5 8,2 12,11 4,9 -17,1 -32,21 -6,9 -5,4 -14,17 -1,2 -15,16 -21,22 -4,5 0,21 0,27 -33,14 -20,7 -46,36 -22,25 -19,38 -56,50 -16,5 -27,16 -38,28 -2,2 -17,11 -27,20 -6,6 -24,-2 -12,18 5,9 -2,37 7,48 7,8 24,53 45,38 13,-9 -2,16 -3,17 -1,1 -2,7 -2,8 0,7 -2,29 -8,32 -12,5 -14,25 -31,28 -1,0 -16,27 -22,33 -18,18 -27,24 -29,48 -2,23 -18,20 -24,36 -10,23 -28,-3 -28,45 0,5 3,9 7,10 0,0 9,12 5,18 9,23 -8,27 0,36 10,23 12,-7 10,25 -1,6 0,21 4,24 8,4 13,-7 5,20 0,2 -5,41 -5,45 1,3 -4,21 -6,25 -2,3 -3,32 -2,37 0,15 -5,14 -5,32 1,12 -9,5 -1,18 1,2 -2,42 -2,42 -4,6 -7,16 -7,23 0,13 -2,28 -2,43 0,6 1,13 1,17 0,7 1,40 -1,44 -6,13 10,30 10,42 0,12 -8,12 -4,13 14,5 2,-1 13,9 1,1 17,11 19,11 6,3 12,9 12,10 6,2 17,19 19,25 1,7 10,16 14,23 1,3 3,6 3,10 0,5 18,35 20,41 6,18 2,7 13,18 4,4 20,28 20,34 -1,15 3,16 5,24 1,8 18,30 24,30 5,0 4,13 2,17 0,12 4,26 -3,37 -2,2 -1,33 -4,42 -5,20 8,12 -19,26 -16,8 -40,13 -50,29 -3,6 -12,2 -11,20 0,7 -23,17 -23,25 -1,6 21,22 21,28 0,16 7,5 10,17 4,21 6,11 9,16 6,11 15,16 16,18 4,9 12,12 12,14 -1,29 3,13 9,37 1,6 8,11 14,13 2,0 17,28 18,31 5,7 1,15 9,24 5,6 2,16 11,16 6,0 5,7 9,12 5,7 7,4 11,10 3,4 27,4 6,12 -4,2 -17,7 -16,9 1,11 11,53 22,55 1,1 25,18 26,20 3,13 18,7 -5,19 -6,0 -23,16 -32,18 -5,1 -7,6 -9,7 -7,4 -8,8 -16,15 -11,11 -15,31 -29,31 -5,0 -51,34 -51,38 -14,8 -21,26 -32,28 -12,3 -4,9 -13,19 -1,0 0,1 -1,3 -8,9 -9,40 -13,43 -11,9 -1,19 -8,26 -13,10 -2,27 -11,34 -6,4 -16,17 -19,16 -22,-6 -25,5 -36,8 -22,7 -12,7 -34,7 -4,0 -12,15 -13,20 0,0 -17,30 -18,33 -1,12 -15,31 -13,34 6,11 -1,10 2,17 4,10 -8,15 -1,28 4,7 1,34 -2,41 -4,14 -3,8 -3,24l-72 155 -198 -5c-11,5 -14,16 -29,14 -16,-3 -9,6 -19,9 -13,4 -21,-3 -29,10 -9,14 -15,7 -32,21 -8,6 -22,0 -27,6 -5,6 -35,8 -48,22 -8,8 -30,7 -29,-8 0,-3 -2,-11 -6,-11 -6,0 -3,-6 -3,-16 0,-9 -2,-15 -5,-23 -4,-9 -16,-65 -19,-69 -10,-10 -62,-57 -79,-61 -20,-3 -45,-20 -66,-20 -17,0 -29,3 -46,2 -5,0 -80,5 -80,7 -1,3 -22,27 -25,29 -20,10 -70,91 -80,100 -15,15 -45,36 -57,37 -59,5 -67,36 -88,37 -7,0 -11,-2 -23,-6 -1,-1 -111,-96 -138,-130 -31,-37 -59,-80 -66,-91 -7,-9 -14,-12 -17,-24 -2,-7 -1,-13 -1,-23 -1,-34 7,-36 -10,-64 -8,-10 -31,-52 -35,-65 -14,-45 -53,-106 -59,-134 -12,-47 -53,-125 -66,-178l74 1c8,1 43,-40 50,-49 14,-20 6,-36 18,-57 7,-11 43,-42 54,-47 16,-9 51,-6 65,0 13,5 20,8 24,5 3,-1 4,-6 7,-12 6,-18 14,-37 33,-52 10,-8 11,-9 22,-15 46,-19 37,-43 47,-55 28,-38 37,-90 43,-140 3,-20 10,-41 12,-60 7,-58 5,-71 5,-132 0,-35 -8,-47 -10,-63 -6,-53 -11,-36 -22,-59 -14,-27 -35,-27 -52,-41 -9,-7 -16,-21 -21,-35 -7,-19 -25,-71 -40,-86 -11,-14 -3,-33 -2,-57 0,-7 3,-13 1,-22 -2,-10 -7,-21 -16,-33 -7,-9 -24,-128 -43,-175 -4,-8 -4,-20 -7,-29 -2,-5 -5,-9 -7,-13 -3,-4 -4,-7 -7,-9 -6,-4 -14,-7 -26,-9l-14 -168c1,-4 -10,-1 -3,-15 7,-12 -11,-11 -6,-22 11,-21 12,-16 3,-36 -7,-17 15,-13 2,-27 -9,-8 6,-6 -13,-21 -3,-2 1,-2 -10,-10 -5,-3 -18,-17 -21,-18 -5,-4 -13,-16 -23,-28 -5,-6 -13,-10 -19,-17 -8,-8 -15,-21 -24,-30 -6,-8 -14,-13 -21,-20 -8,-9 -13,-18 -20,-25 -7,-8 -12,-13 -15,-18 -2,-2 -2,-6 -3,-8 -9,-14 -41,-6 -58,-12 -4,-2 -2,-9 -1,-18 3,-14 -94,-169 -110,-183l11 -42c-5,-3 -11,-11 -18,-18 -3,-3 -8,-4 -10,-8 -5,-5 -8,-11 -10,-17 -1,-4 1,-7 2,-11 1,-3 0,-7 2,-8 7,-9 13,-23 21,-37 2,-4 3,-11 5,-15 3,-5 8,-9 12,-14 8,-11 15,-20 24,-29 10,-11 3,-13 8,-22 1,-3 4,-6 9,-12 1,-2 0,-6 2,-7 2,-2 5,0 8,-2 2,-2 3,-7 4,-9 3,-4 7,-7 9,-10 8,-10 15,-13 14,-17 -1,-5 -18,-9 -20,-19 -5,-6 -16,-29 -27,-48 -3,-5 -8,-6 -11,-10 -5,-8 -8,-18 -10,-19 -1,-2 -1,-6 0,-12 0,-2 3,-3 3,-5 1,-3 -1,-7 0,-10 2,-5 6,-8 7,-13 3,-7 1,-15 3,-19 1,-2 4,-8 4,-8 1,-2 4,-1 6,-5 2,-3 2,-7 3,-11 2,-4 10,-7 12,-12 3,-7 0,-17 1,-23 1,-1 3,-5 6,-7 3,-1 5,0 9,-3 3,-3 7,-8 11,-15 1,-3 0,-15 1,-18 4,-11 7,-20 6,-26 -1,-4 -6,-6 -9,-8 -5,-6 -8,-11 -5,-16 11,-15 -16,-43 -20,-60 -2,-10 -7,-22 -15,-35 -3,-5 -5,-15 -9,-21 -3,-4 -8,-3 -11,-7 -7,-10 -11,-27 -17,-37 -4,-7 -11,-8 -14,-14 -3,-6 -6,-11 -7,-16 -12,-2 -9,-17 -4,-32 2,-5 8,-9 10,-14 4,-6 4,-13 6,-15 3,-4 6,-7 7,-10 8,-32 -30,-36 -42,-57 -3,-5 -4,-11 -7,-15 -5,-7 -10,-10 -13,-13 -8,-7 -14,-7 -24,-19 -4,-8 -5,-15 -9,-18 -3,-3 -8,-3 -10,-6 -4,-3 -3,-12 -6,-19 -6,-14 -26,-34 -29,-43 6,-6 13,-18 21,-25 0,0 23,-25 11,-25 -9,0 -17,7 -18,-7 0,-11 13,-13 -11,-11 -15,2 -3,-12 -7,-36 -1,-3 -1,-16 0,-17 -1,-1 2,-8 1,-12 -1,-3 -5,-3 -8,-4 -3,-2 -7,-5 -10,-8 -2,-1 -2,-3 -3,-4 -2,-2 -5,-3 -7,-5 -2,-2 -2,-6 -4,-8 -2,-2 -5,-3 -6,-5 -1,-1 1,-4 0,-6 -1,-2 -5,-3 -6,-5 -16,-32 -29,-71 -41,-91 -15,-22 -38,-127 -42,-153 -3,-21 -9,-44 -16,-68 -6,-20 -8,-41 -13,-61 -4,-18 -8,-34 -9,-46 -1,-4 -4,-6 -5,-10 -1,-3 1,-8 0,-10 -1,-5 -29,-40 -31,-43 -7,-10 -12,-11 -16,-14 -5,-3 -5,-6 -8,-13 -5,-11 -7,-20 -12,-26 -8,-12 -16,-17 -15,-47 0,-5 -2,-7 -5,-11 -4,-6 -12,-1 -23,-3 -7,-1 -16,0 -24,-4 -9,-4 -19,-12 -28,-19 -8,-5 -22,-12 -33,-20 -4,-4 -1,-7 -3,-11 -3,-5 -10,-9 -8,-14 2,-3 5,-9 4,-13 -2,-20 -26,-47 -24,-80 1,-28 -50,-73 -78,-73 -3,-12 -1,-23 -4,-28 -2,-3 -5,-5 -9,-8 -3,-2 -4,-8 -9,-12 -5,-3 -14,-4 -21,-10 -3,-1 -5,-5 -8,-8 -3,-3 -7,-5 -10,-7 -8,-6 -17,-12 -26,-18 -4,-2 -5,-7 -8,-9 -2,-1 -6,-1 -9,-3 -6,-4 -11,-9 -15,-14 -3,-3 0,-7 -1,-10 -1,-3 -6,-6 -7,-9 -4,-27 -2,-36 -4,-45 -3,-11 -15,-15 -53,-41 -3,-2 -6,0 -9,-3 -3,-3 -6,-10 -8,-13 -4,-3 -9,-2 -13,-6 -4,-5 -7,-13 -11,-17 -3,-3 -7,-1 -10,-4 -3,-2 -5,-9 -8,-11 -2,-3 -11,-26 -11,-29 -6,-6 -10,-4 -18,-8 -4,-2 -10,-7 -15,-14 -4,-5 -6,-11 -13,-19 -4,-5 -16,-2 -24,-5 -8,-2 -13,-8 -23,-9 -16,-1 -29,0 -39,-12 -9,-10 -17,-6 -24,-7 -5,-1 -8,-6 -18,-26 -4,-8 -26,-6 -59,-3 -14,2 -36,-4 -49,-5 -19,0 -36,4 -46,-6 -6,-6 -6,-10 -6,-23 0,-2 -4,-5 -5,-9 -1,-5 1,-11 -1,-14 -3,-6 -8,-6 -20,-2 -6,2 -13,0 -22,-2 -5,-2 -11,-1 -17,-3 -6,-2 -12,-8 -21,-8 -6,0 -7,-1 -15,1 -8,1 -16,-4 -26,-10 -5,-3 -10,-8 -17,-9 -5,-1 -11,0 -17,2 -7,1 -14,0 -20,-2 -10,-9 -20,-19 -29,-30 -6,-7 -6,-16 -10,-25 -4,-11 -11,-21 -15,-32 -3,-9 -4,-22 -6,-30 -1,-6 -5,-7 -7,-12 -7,-19 -15,-32 -23,-40 -46,0 -24,18 -64,-17 -5,-4 -3,-11 -9,-14 -7,-4 -22,-5 -30,-9 -8,-4 -14,-11 -22,-16 -21,-11 -38,-18 -56,-30 -3,-2 -10,1 -20,2 -8,1 -19,-1 -31,-1 -7,0 -11,-4 -18,-6 -7,-2 -13,-3 -20,-6 -5,-2 -18,-18 -22,-23 -10,-3 -24,-5 -43,-8 -10,-1 -22,-4 -37,-7 15,-52 14,-78 5,-92 -4,-6 -9,-6 -14,-9 -5,-3 -12,-5 -13,-11 -1,-5 -7,-9 -11,-12 -4,-4 -10,-5 -12,-11 -2,-5 -3,-12 -3,-20 0,-12 -7,-21 -19,-30 -3,-1 -6,-3 -9,-4 -3,-1 -6,-1 -9,-2 -4,-2 -9,-5 -13,-6 -5,-3 -11,-4 -16,-6 -5,-1 -9,-15 -14,-16 -8,-3 -17,-1 -25,-2 -19,0 -35,-1 -44,-1z"/>
  <path class="fil1" d="M12409 6274c-11,4 -7,17 -23,14 -11,-1 -10,9 -12,20 -2,16 2,29 0,41 0,0 0,3 0,3 0,9 5,28 6,39 0,3 20,23 21,23 12,6 0,35 12,34 30,-1 34,12 49,16 15,5 23,-1 30,-1 5,0 7,-9 31,2 12,5 43,5 49,-7 12,-2 29,-31 40,-18 6,7 2,3 10,11 0,0 5,2 5,2 14,16 12,-1 23,-7 11,-5 1,-14 9,-13 7,0 7,5 25,5 1,1 12,3 13,3 1,0 14,3 17,0 10,-10 39,-22 42,-25 10,-10 16,9 34,-1 13,-8 12,-2 29,-2 7,0 17,-6 22,-11 6,-4 10,39 26,18 8,-12 25,-27 39,-32 6,-3 22,-13 22,-2 -2,25 7,32 11,52 5,25 11,19 22,28 4,0 9,17 26,19 15,2 30,32 40,32 6,0 15,1 18,7 10,19 15,20 31,31 11,7 20,-16 20,-21 0,-10 -4,-16 2,-20 15,-11 27,-41 32,-58 3,-11 21,-33 29,-36 40,-10 23,1 39,14 3,9 25,8 33,31 8,22 9,13 19,22 3,3 24,11 27,11 11,1 21,11 30,11 21,0 16,18 23,19 8,0 14,7 19,9 18,10 4,11 13,21 2,1 24,8 23,17l0 0 0 0c-2,3 -4,7 -6,14 -33,7 -29,25 -25,42 2,11 5,22 -8,26 -21,8 -22,25 -23,40 -1,18 -2,34 -36,34 -16,0 -36,8 -48,18 -3,3 -6,6 -8,10 -3,3 -4,7 -4,11 0,5 2,9 6,14 27,32 32,41 29,44 -1,1 -4,1 -7,2 -8,2 -21,5 -25,22 -10,37 -12,37 -14,36 -5,-2 -10,-4 -20,20 -1,0 -1,1 -1,1 0,5 1,8 3,10 1,2 2,4 2,10 0,50 -14,62 -31,62 0,0 0,0 0,0 -9,0 -19,-3 -28,-6 -12,-3 -23,-6 -33,-5 -30,1 -39,-4 -47,-9 -8,-4 -16,-9 -38,-9 -26,0 -46,-9 -59,-15 -9,-4 -15,-7 -19,-4 -29,25 -46,23 -56,11 -9,-11 -14,-28 -19,-45 -7,-23 -13,-45 -28,-46 -33,-3 -35,-18 -36,-27 0,-3 -1,-5 -2,-7 -3,-4 -10,-1 -32,17 -7,6 -10,17 -12,27 -1,7 -2,13 -5,17 -4,7 -13,8 -34,-5 -6,-4 -18,-4 -32,-3 -26,3 -60,11 -61,11 0,0 0,0 0,0 -32,19 -13,50 -4,65 2,3 3,5 3,6 8,66 24,63 37,61 5,-1 10,-2 14,4 3,6 17,8 34,11 0,0 0,0 0,0 22,4 47,9 57,18 0,0 0,0 0,0 6,6 5,14 -7,27 0,0 0,0 0,0 -28,27 -26,32 -19,48 4,9 10,22 11,48 1,5 1,9 3,12 6,17 24,29 43,36 19,7 39,10 51,9 4,0 7,-1 9,-1 0,0 0,0 0,0 5,-1 22,4 37,11 16,6 31,14 33,20 0,0 0,0 0,0 1,9 15,25 33,40 28,23 64,46 70,47 18,4 20,10 21,15 2,6 3,10 14,11 32,3 32,4 32,6 0,5 -1,12 12,24 14,13 27,32 30,46 1,4 2,8 1,10 0,2 -1,3 -3,3 -4,1 -9,0 -18,-5 -12,-6 -21,-9 -27,-8 -7,0 -12,4 -15,9 -2,5 -3,11 -3,18 0,17 7,38 12,47 20,37 20,39 18,57 -1,8 -3,19 -3,37 -4,0 -8,1 -11,3 -11,4 -16,8 -20,11 -6,6 -10,9 -38,9 -5,0 -5,2 -5,7 0,3 0,9 -11,15 -4,2 -7,8 -7,14 0,2 0,4 1,6 1,2 2,3 4,5 3,2 8,2 16,-1 0,0 1,0 1,0 1,1 1,1 1,2 1,2 1,3 1,5 0,6 -2,13 -8,18 -7,7 -11,18 -11,30 0,12 3,26 9,34 1,1 -1,4 -4,8 -7,11 -18,28 1,55 0,1 1,1 1,2 5,14 2,19 -3,20 -4,2 -10,2 -16,2 -14,1 -30,1 -40,15 -14,18 -16,18 -24,18 -6,0 -15,0 -32,7 -5,1 -10,0 -14,-1 -3,-1 -6,-2 -9,-1 -6,1 -8,8 -2,31 2,8 0,10 -3,11 -2,0 -5,0 -7,0 -8,1 -17,1 -18,12 0,10 -11,11 -22,12 -7,0 -15,1 -21,3 -5,2 -7,0 -9,-3 -3,-9 -3,-27 -2,-44 0,-7 0,-14 0,-21 0,0 0,0 0,0 0,-15 -3,-25 -11,-25 -12,0 -12,-1 -15,-7 -1,-2 -3,-6 -6,-11 -1,-2 -4,-3 -6,-4 -4,-1 -9,-3 -11,-38 -1,-23 -2,-31 -12,-30 -3,0 -8,2 -15,4 -4,2 -10,4 -16,6 -3,1 -5,2 -7,3 -2,1 -5,2 -6,2 -4,0 -7,-2 -9,-16 0,0 0,-1 0,-2 -1,0 -2,0 -3,0 -12,-1 -15,5 -18,9 -1,3 -3,5 -12,-3 -4,-3 -8,-2 -11,2 -6,9 -9,34 -11,54 -1,9 -2,18 -3,21 0,2 0,8 0,15 -1,12 -1,27 -4,37 -2,6 -6,10 -12,8 -2,-1 -7,-6 -10,-12 -3,-5 -5,-11 -5,-16 0,-7 -4,-17 -8,-29 -3,-10 -7,-22 -9,-33 0,-2 -1,-4 -2,-5 -2,-1 -4,-1 -6,-1 -1,1 -2,2 -4,3 -4,4 -8,12 -10,22 0,1 -6,13 -11,19 -1,1 -2,1 -2,2 0,-3 1,-9 3,-18 0,0 0,0 0,0 0,0 0,0 0,0 0,0 0,0 0,0 0,-3 0,-13 -1,-22 -1,-9 -4,-18 -9,-21 -1,-2 -3,-3 -4,-3 -1,0 -2,-1 -3,-16 0,-7 -5,-11 -12,-16 -6,-5 -13,-11 -15,-19 -1,-1 -1,-2 -1,-2 -1,0 -1,0 -2,0 -10,0 -14,2 -16,3 -1,0 -1,0 -1,0 -1,0 -3,-2 -9,-7 -1,-1 -2,-2 -3,-3 -3,-2 -16,3 -29,12 -7,4 -13,9 -19,15 -7,5 -12,11 -15,16 -3,6 -4,11 0,15 0,0 0,0 0,0 7,10 9,16 8,20 0,2 -1,3 -2,3 -1,1 -2,1 -3,1 -3,0 -6,-1 -7,-4 -1,-1 -2,-2 -4,-3 -2,0 -6,0 -10,2 -3,1 -7,3 -11,6 -6,6 -12,14 -13,22 0,1 -2,4 -4,6 -2,2 -4,4 -5,6 -8,14 -8,26 -8,34 0,3 0,5 0,5 0,1 -3,-1 -11,-5 -4,-2 -8,-1 -13,1 -5,2 -12,5 -20,-3 -11,-10 -20,-5 -31,1 -8,4 -17,9 -29,9 -3,0 -11,5 -19,12 -9,8 -21,17 -28,19 -4,1 -8,2 -10,2 -3,1 -5,1 -7,3 -2,2 -3,5 -7,13 0,1 -1,2 -2,5 0,1 -2,2 -5,4 -6,5 -15,13 -20,25 -2,5 -4,6 -6,7 -5,3 -8,5 -8,38 0,7 1,10 2,12 0,3 1,5 -2,15 -3,12 -5,14 -6,17 -2,2 -4,5 -7,16 -1,1 -1,3 0,7 0,0 0,0 0,0 0,12 2,41 2,51 -1,2 -1,5 0,8 0,1 0,2 0,3 -3,7 -3,9 -3,11 0,2 0,2 -11,17 -8,11 -9,24 -10,36 -1,16 -2,32 -20,38 -11,5 -14,15 -17,30 -5,18 -11,43 -41,65 -1,1 -2,3 -4,5 -7,8 -22,25 -30,25 -3,0 -5,-5 -5,-17 1,-30 -7,-37 -15,-43 -5,-4 -10,-8 -9,-24 0,-8 -5,-12 -11,-17 -7,-6 -15,-12 -11,-28 1,-4 -2,-7 -8,-11 -8,-6 -22,-16 -26,-37 -1,-8 -10,-15 -20,-18 -5,-2 -10,-3 -15,-3 -5,0 -10,1 -14,4 -7,4 -12,11 -13,23 0,6 -7,12 -13,17 -2,2 -4,4 -6,6 -7,7 -11,15 -1,25 4,4 0,16 -6,27 -3,5 -7,10 -11,13 -4,4 -8,5 -10,5 -3,0 -6,-3 -8,-9 -1,-4 -3,-8 -6,-13 -6,-11 -13,-25 -9,-44 1,-4 2,-7 3,-10 5,-14 8,-23 -17,-38 -2,-1 -4,0 -7,1 -3,0 -6,1 -9,0 -5,-1 -8,-11 3,-49 0,0 0,-1 0,-1 0,-12 -3,-13 -6,-14 -2,-1 -5,-2 -6,-18 0,0 0,-1 -1,-2 -1,-3 -6,-6 -13,-9 -5,-2 -13,-3 -19,-3 -3,0 -6,1 -9,2 0,-1 0,-2 0,-4 0,-6 0,-15 -7,-19 -1,-1 0,-2 1,-5 2,-5 6,-11 6,-21 0,-16 -2,-17 -13,-22 -3,-1 -7,-3 -13,-6 -10,-6 -15,-3 -19,0 -5,3 -9,6 -26,-10 -7,-6 -9,-10 -10,-11 -1,-2 -1,-3 -3,-3 0,0 0,0 0,0 -1,-1 -2,-1 -5,-1 -3,1 -10,1 -21,1 -3,0 -5,-2 -7,-4 -3,-4 -8,-9 -20,-10 -1,0 -7,-3 -13,-7 -8,-6 -16,-12 -17,-12 -1,-4 -11,-20 -21,-38 -14,-23 -30,-49 -31,-49 -10,-6 -16,-3 -22,-1 -4,2 -7,3 -11,-1 -1,-1 -21,-7 -39,-8 -11,-1 -21,-2 -26,1 -12,5 -25,8 -38,12 -17,4 -34,9 -53,17 -5,2 -11,4 -16,5 -10,3 -20,5 -32,15 -12,11 -13,11 -17,10 -4,-1 -9,-2 -21,0 -3,1 -7,5 -11,10 -7,8 -14,18 -15,20 0,0 0,1 0,1 0,0 0,1 0,1 -1,4 -3,16 -5,17 0,0 -1,-2 -3,-6 -6,-18 -12,-22 -18,-19 -3,1 -5,3 -8,5 -4,4 -9,8 -15,8 -5,0 -10,3 -14,8 -4,3 -6,9 -6,15 0,0 0,0 0,0 2,8 0,10 -3,11 -2,0 -4,0 -6,0 -6,1 -14,1 -21,7 0,0 -1,1 -1,1 -4,2 -10,-1 -17,-6 -7,-5 -14,-12 -19,-19 -4,-6 -8,-11 -9,-14 -1,-1 -2,-3 -3,-5 -5,-10 -18,-30 -29,-47 -12,-19 -23,-35 -27,-33 0,0 0,0 0,0 0,0 0,0 0,0 0,0 0,0 0,0 -5,3 -8,6 -9,9 -1,1 -1,1 -2,2 0,0 -2,-3 -10,-14 -6,-9 -10,-10 -13,-8 -3,2 -4,6 -4,10 -1,3 -2,7 -3,7 -7,0 -11,-4 -14,-7 -7,-6 -14,-11 -35,-2 -4,2 -8,3 -11,4 -10,3 -20,6 -31,18 -5,7 -13,16 -21,23 -8,7 -16,14 -25,16 -5,1 -29,13 -48,25 -12,8 -22,16 -23,22 -1,3 -4,3 -8,2 -1,0 -2,-1 -3,-1 -4,-1 -8,-3 -11,0 -11,7 -21,18 -32,28 -14,14 -29,28 -42,35 -1,1 -3,2 -5,4 -7,5 -19,12 -29,8 -15,-6 -24,14 -31,29 -3,7 -5,12 -6,12 -5,0 -23,1 -41,2 -16,2 -33,3 -38,4 -7,1 -7,5 -9,10 -1,6 -4,16 -39,27 -9,3 -13,3 -14,1 -1,-3 0,-8 1,-14 0,-5 1,-11 1,-17 0,-6 1,-11 1,-16 1,-17 1,-24 -1,-47 -1,-3 -2,-15 -3,-26 -1,-13 -3,-26 -3,-26 0,0 0,0 0,0 1,-1 4,-16 5,-28 1,-4 2,-8 2,-11 0,-5 -1,-8 -3,-8 0,0 0,0 0,0 0,0 0,0 0,0 0,0 0,0 0,0 -8,-1 -15,7 -22,15 -4,5 -9,10 -12,13 -4,2 -7,1 -10,-4 -2,-4 -5,-6 -6,-8 -3,-2 -5,-4 -5,-10 -1,-5 -6,-5 -11,-5 -3,0 -6,0 -9,-1 -2,-1 -4,-5 0,-14 0,0 0,0 0,0 0,0 1,-8 1,-17 0,-7 1,-15 0,-22 0,-7 -2,-13 -5,-14 0,0 -1,0 -1,0 -24,-1 -25,-4 -26,-6 -1,-3 -2,-6 -15,-5 -4,0 -7,2 -9,3 -1,1 -2,1 -5,-4 -5,-9 -11,-6 -16,-3 -2,0 -3,1 -4,1 -1,0 -1,-1 -2,-5 0,-4 -1,-7 -3,-8 -3,-5 -8,-3 -14,4 -5,5 -10,13 -16,24 -23,42 -54,118 -59,129 -2,5 -8,21 -15,32 -4,5 -7,9 -9,9 -2,0 -15,-1 -25,-3 -6,-1 -10,0 -10,-1 -2,-5 0,-12 2,-17 1,-5 2,-9 0,-12 -2,-3 -5,-3 -12,2 0,0 0,0 0,0 -3,1 -4,3 -6,5 -1,1 -1,2 -2,2 0,0 1,-1 -1,-6 -7,-23 -9,-28 -14,-27 -2,1 -3,2 -4,3 0,0 0,0 0,0 -3,2 -6,5 -13,6 -1,0 -2,-1 -3,-3 0,-1 0,-2 0,-3 -1,-1 -1,-2 0,-3 0,-2 1,-4 2,-4 0,0 1,0 1,0 1,-1 1,-1 1,-2 1,-2 3,-7 4,-13 1,-3 1,-7 1,-10 -1,-3 -3,-6 -7,-7 -1,-1 -3,-1 -4,-1 -1,0 0,-1 0,-2 0,-10 5,-32 9,-46 1,-7 3,-12 3,-14 0,0 0,0 0,0 0,-2 1,-6 1,-11 2,-9 3,-19 3,-22 2,-10 4,-17 5,-21 2,-5 2,-8 1,-10 -1,-4 -4,-6 -12,-10 -2,-1 -6,-3 -9,-5 -9,-5 -9,-11 -9,-14 0,-6 0,-10 -9,-10 -13,-1 -14,-8 -15,-16 0,-6 -1,-12 -5,-17 0,0 0,-1 0,-1 2,-1 6,-2 10,-3 5,-1 9,-2 12,-4 4,-3 13,-10 22,-18 15,-13 32,-28 37,-28 7,0 11,0 14,0 11,0 15,0 17,-1 0,0 0,0 0,0 2,-3 1,-5 -2,-7 0,0 0,0 0,0 -2,-3 -5,-6 -6,-12 -1,-4 -3,-5 -4,-7 0,0 0,0 0,0 0,0 0,0 0,0 -1,-1 3,0 15,-5 1,0 5,-6 8,-11 1,-2 2,-4 2,-6 0,-2 0,-4 -1,-6 -1,-1 -2,-1 -3,-2 -33,-6 -55,6 -72,14 -8,5 -16,8 -22,8 -2,0 -4,-1 -6,-1 -3,-1 -7,-2 -16,-2 -1,0 0,1 -1,1 0,-4 -1,-7 -25,3 -7,3 -9,2 -11,0 0,0 0,0 0,0 -5,-4 -10,-8 -34,3 -5,3 -9,5 -12,6 -7,4 -8,5 -22,7 -4,1 -8,5 -13,9 -4,5 -8,9 -12,9 -3,1 -7,-4 -9,-22 0,0 0,0 0,0 0,0 0,0 0,0 0,-1 0,-1 0,-1 -1,0 -1,0 -1,0 0,0 0,0 0,0 0,0 0,0 0,0 0,-1 -3,-7 -5,-11 -2,-3 -4,-6 -6,-8 4,-1 9,-3 14,-5 8,-4 14,-8 10,-13 -4,-6 -9,-20 -13,-33 -2,-11 -4,-21 -2,-26 7,-1 13,-1 18,-1 15,0 24,0 43,-18 4,-4 14,-11 25,-19 20,-13 42,-29 41,-37 -1,-23 -9,-53 -16,-79 -2,-5 -3,-11 -4,-15 0,-1 -1,-1 -1,-2 -1,0 -1,0 -2,0 -10,0 -22,-1 -35,-1 0,-5 0,-11 1,-17 0,-7 0,-13 0,-17 0,-26 1,-26 3,-27 2,0 5,-1 7,-9 0,0 0,-1 0,-1 -4,-11 -4,-21 -3,-32 0,-3 0,-6 0,-8 0,-2 0,-4 0,-5 0,-6 0,-8 0,-9 0,-1 1,1 3,1 0,0 1,1 1,1 0,0 0,0 0,0 8,2 12,5 15,7 6,5 9,7 20,-1 6,-5 10,-10 12,-13 1,-1 1,-2 1,-2 25,-19 33,-38 44,-62 2,-5 4,-10 7,-16 6,-12 8,-24 10,-36 3,-20 6,-38 27,-48 0,0 1,0 1,0 0,-1 0,-2 0,-2 0,-2 0,-6 -1,-12 -1,-8 -2,-19 -3,-22 0,-8 -3,-10 -7,-13 -1,-1 -3,-1 -4,-2 -3,-3 -17,-6 -32,-9 -21,-4 -45,-6 -51,-6 -1,0 -5,-5 -9,-11 -9,-13 -19,-32 -21,-36 -2,-4 -8,-10 -13,-15 -5,-4 -9,-8 -11,-12 -3,-3 -4,-5 -2,-6 8,-6 7,-12 6,-18 -1,-3 -1,-5 0,-6 6,-6 5,-9 2,-14 -2,-3 -5,-8 -5,-16 0,-1 1,-1 2,-1 1,0 3,0 6,-1 5,0 12,1 15,5 13,23 23,23 28,23 1,0 1,0 1,0 18,29 29,22 39,15 4,-3 8,-5 12,-5 16,0 22,-2 22,-6 0,-3 -3,-6 -7,-10 -1,-1 -3,-3 -5,-4 0,0 0,0 0,0 0,0 0,0 0,0 -1,-2 -24,-24 -24,-26 -1,-13 -10,-32 -12,-35 -1,-20 -4,-23 -10,-28 0,0 0,0 0,0 -2,-2 -4,-4 -7,-7 -9,-14 -16,-13 -23,-9 -3,2 -5,5 -8,8 -5,5 -10,10 -15,6 0,0 0,0 0,0 -2,-1 -4,-2 -5,-1 -3,0 -5,1 -7,3 -2,1 -4,3 -5,5 -5,7 -8,15 -8,16 0,0 0,0 0,0 0,0 0,0 0,0 0,0 0,0 0,0 0,10 4,10 7,10 1,0 1,0 1,0 0,0 0,0 0,0 0,0 -1,2 -4,15 -1,4 -2,6 -2,6 -2,0 -4,-6 -7,-13 -5,-8 -9,-18 -15,-20 -10,-4 -9,-7 -8,-11 1,-7 3,-15 -18,-21 -8,-2 -13,-4 -15,-7 -2,-2 -1,-6 2,-13 4,-12 14,-21 21,-29 4,-5 8,-8 10,-12 0,0 1,-1 1,-1 0,0 0,-1 -1,-1 -5,-12 5,-21 14,-29 6,-5 12,-10 11,-16 0,-12 4,-14 9,-16 6,-3 12,-7 9,-25 10,-45 -2,-47 -22,-52 -6,-1 -12,-3 -18,-5 -12,-5 -17,-8 -20,-11 -3,-2 -3,-4 -3,-5 -1,-5 4,-10 8,-14 2,-1 3,-2 4,-3 5,-6 7,-11 6,-15 0,-3 -1,-5 -2,-7 -2,-2 -4,-3 -6,-4 -4,-1 -8,-1 -13,2 -3,2 -5,4 -8,7 0,0 0,0 0,0 -2,3 -5,6 -7,9 0,1 0,1 0,1 -1,1 -3,1 -5,0 -3,-2 -6,-4 -10,-7 -6,-6 -13,-14 -15,-17 -7,-9 -13,-5 -19,0 -1,0 -3,1 -4,2 -2,1 -5,1 -9,-5 -11,-22 -16,-24 -21,-26 -2,-1 -4,-2 -7,-6 -4,-5 -5,-12 -6,-21 -1,-14 -3,-34 -17,-57 -7,-13 -10,-36 -14,-58 -2,-18 -4,-36 -9,-50 -4,-11 -3,-21 0,-27 1,-4 3,-7 5,-9 1,-1 3,-2 4,-2 0,0 1,0 2,0 4,1 7,-2 10,-7 3,-4 5,-10 7,-16 7,-18 12,-41 14,-48 1,-2 6,-12 11,-20 4,-7 8,-13 8,-15 0,0 0,0 0,0 1,-1 0,-1 0,-2 -1,-5 -7,-7 -13,-9 -4,-1 -7,-2 -8,-4 -2,-2 3,-8 27,-23 7,-5 14,-1 21,2 9,4 16,7 23,-5 0,0 0,0 0,0 9,-18 16,-22 22,-25 10,-5 16,-8 21,-68 1,-15 7,-27 14,-40 5,-8 9,-16 12,-25 9,-24 35,-50 54,-68 11,-11 20,-19 21,-24 2,-7 4,-12 4,-15 1,-3 1,-4 1,-4 1,0 1,0 2,-1 4,-1 10,-3 25,-13 1,7 3,15 5,22 5,15 13,28 24,36 11,7 23,7 31,7 4,0 6,1 8,1 0,0 -1,0 -1,0 -8,22 -4,24 0,26 0,1 1,1 1,4 -1,38 13,45 29,45 4,0 8,0 12,0 8,-1 16,-2 20,3 0,0 0,0 0,0 0,0 0,0 0,0 0,0 0,0 0,0 3,3 14,6 24,7 10,2 20,2 23,0 0,0 0,0 0,0 0,0 0,0 0,0 0,0 0,0 0,0 4,-4 7,-4 10,-4 1,0 3,0 4,-1 5,-1 6,-6 -1,-29 -3,-8 0,-11 5,-13 4,-1 9,-2 15,-2 12,-1 24,-1 24,-13 0,-7 6,-13 13,-18 10,-10 20,-19 10,-35 -10,-15 -10,-21 -7,-23 4,-2 10,-2 17,-2 7,0 13,0 17,-3 11,-10 17,-12 23,-15 4,-1 8,-3 14,-7 19,-11 21,-19 17,-24 -3,-5 -10,-8 -14,-8 -2,-13 5,-15 13,-16 7,-2 14,-3 20,-9 2,-1 2,-7 1,-14 -1,-11 -3,-25 -3,-28 -3,-14 3,-27 10,-34 3,-2 5,-4 7,-4 2,-1 4,0 5,1 2,2 3,7 2,17 -2,16 0,22 5,23 4,0 9,-4 14,-8 3,-3 6,-5 8,-6 2,-1 3,-2 4,-1 6,10 12,5 19,0 6,-3 12,-7 17,1 1,2 2,3 3,4 5,4 11,6 17,5 6,0 11,-2 14,-3 0,0 0,0 0,0 1,-1 1,-1 2,-2 1,-1 2,-2 3,-2 1,0 3,1 4,3 2,3 4,7 6,11 6,15 9,37 6,46 -8,32 -5,35 -2,39 3,2 5,4 4,22 -3,35 -1,40 2,49 2,5 4,12 7,26 0,1 0,2 1,2 2,5 8,9 15,11 7,2 15,3 21,2 1,-1 3,-1 4,-2 13,-6 21,-11 28,-15 14,-9 21,-14 54,-11 26,2 30,12 33,19 3,6 5,10 14,9 10,-1 13,4 13,9 1,3 1,6 0,9 0,5 0,10 2,13 3,7 9,9 24,2 6,-3 10,-6 14,-9 2,-1 4,-2 5,-3 6,-4 11,-6 15,1 11,17 9,27 8,33 0,2 0,4 0,5 0,8 5,9 33,8 1,1 2,6 2,12 1,7 2,16 2,24 0,8 0,15 0,16 -7,9 -6,17 -6,24 1,4 1,8 0,11 -12,27 -12,38 -6,40 5,2 13,-3 21,-8 5,-3 11,-7 13,-7 17,1 22,-4 22,-14 1,-5 -1,-11 -3,-18 -4,-18 -10,-42 10,-64 23,-24 18,-34 15,-40 0,-2 -1,-3 0,-4 5,-14 5,-28 4,-40 -1,-11 -1,-20 3,-24 49,-39 66,-16 76,-2 5,6 8,11 13,12 14,1 16,3 20,6 3,4 8,8 25,15 6,2 15,3 24,5 13,2 25,3 25,6 -1,6 6,12 14,19 14,10 33,20 39,23 10,5 15,4 17,0 1,-3 1,-7 1,-11 0,-9 -1,-20 9,-27 11,-7 12,-12 10,-16 -2,-2 -5,-4 -8,-5 -3,-1 -6,-3 -6,-5 -4,-12 -13,-22 -21,-31 -10,-12 -19,-22 -12,-30 13,-14 17,-30 20,-40 0,0 0,0 0,0 1,-4 2,-7 2,-7 13,-12 5,-27 -3,-41 -5,-8 -10,-17 -7,-21 10,0 20,0 30,0 18,0 32,3 42,5 8,2 13,3 18,3 14,0 23,2 28,3 2,1 4,1 5,1 13,1 20,4 26,7 7,3 11,5 19,2 1,0 1,0 2,0 0,-1 0,-1 0,-2 3,-9 1,-12 -2,-17 -2,-4 -5,-9 -5,-21 0,0 0,0 0,0 0,0 0,0 0,-1 1,-5 10,-17 18,-28 8,-11 15,-20 15,-21 25,5 33,-6 38,-15 3,-4 6,-8 10,-6 15,7 20,6 21,3 0,0 0,-1 0,-2 1,0 1,1 1,1 10,3 15,4 19,2 2,0 3,-2 4,-4 0,0 0,0 0,0 1,-1 1,-3 1,-4 0,-4 -2,-7 -3,-8 -6,-4 -9,-7 -10,-9 0,-1 0,-1 1,-2 0,0 1,-1 3,-1 6,-2 16,-1 23,1 28,7 32,-12 34,-23 1,-2 1,-4 1,-5 7,-15 7,-24 7,-32 0,-6 0,-11 5,-18 16,-21 16,-21 17,-21 1,1 4,3 9,-1 15,-9 22,-7 26,-1 3,4 4,10 6,15 3,10 5,18 13,18 14,-1 23,7 31,13 10,8 18,14 31,7 11,-7 19,-7 25,-6 8,0 12,0 12,-13 0,-1 0,-2 1,-3 3,-9 17,-16 31,-20 13,-5 25,-7 27,-8 5,1 20,-3 34,-10 6,-3 12,-6 17,-10 5,-4 8,-8 8,-12 1,-2 0,-3 -1,-5 -4,-6 -5,-16 -4,-24 1,-2 1,-5 2,-7 1,-1 2,-2 2,-2 1,0 1,0 1,0 9,4 15,3 20,1 4,-1 7,-2 12,7 7,11 12,24 17,36 6,13 11,26 17,34 2,3 4,5 6,8 5,7 9,13 14,16 0,0 0,0 0,0 6,3 12,1 17,-9 8,-15 14,-17 18,-15 0,0 0,0 0,0 3,2 6,7 8,11 2,4 4,6 6,7 12,2 18,2 21,2 1,2 3,8 9,20 3,5 12,4 22,4 9,-1 19,-1 21,1 0,0 0,0 0,0 1,1 0,4 -6,10 0,0 0,0 0,0 -4,4 -7,13 -7,21 -1,13 1,27 3,30 11,13 10,20 9,30 -1,6 -2,14 -1,25 5,35 -1,40 -7,45 -3,3 -7,6 -10,13 -4,13 -2,19 3,20 5,2 12,-1 18,-3 4,-2 7,-3 7,-3 3,2 4,3 5,4 1,3 3,5 23,14 18,8 30,1 37,-2 2,-2 2,-3 3,-2 0,0 0,0 0,0 4,2 3,3 3,5 -2,4 -4,10 17,25 3,2 8,6 13,10 21,18 54,44 76,36 33,-13 35,-9 37,-4 2,4 4,9 13,9 39,3 38,7 37,12 0,5 -1,11 8,17 7,14 22,17 35,20 10,3 19,5 19,11 -1,15 8,23 16,30 8,6 14,12 10,22 -3,10 -3,29 -2,47 0,13 0,25 -1,31 -1,2 -1,3 -1,5 0,8 3,18 8,26 5,8 12,14 16,15 0,0 0,0 0,0 1,0 1,0 2,0 23,1 23,4 22,6 0,5 0,7 9,7 22,-1 29,1 29,3 0,3 -4,7 -8,11 -6,8 -13,15 -11,23 4,8 6,16 8,23 2,8 3,16 6,22z"/>
 </g>
</svg>
