<?xml version="1.0" encoding="UTF-8" standalone="no"?>
<svg xmlns="http://www.w3.org/2000/svg"
   xmlns:dc="http://purl.org/dc/elements/1.1/"
   xmlns:cc="http://creativecommons.org/ns#"
   xmlns:rdf="http://www.w3.org/1999/02/22-rdf-syntax-ns#"
   width="737.59747" height="816.62604"
   viewBox="0 0 208.19284 294.68957"
   version="1.0">
<metadata><rdf:RDF><cc:Work rdf:about="">
  <dc:format>image/svg+xml</dc:format>
  <dc:type rdf:resource="http://purl.org/dc/dcmitype/StillImage"/>
</cc:Work></rdf:RDF></metadata>
   <path transform="matrix(1.637326,0,0,1.637326,-65.323144,-91.367212)" style="fill:#4c8bf5;fill-opacity:1;stroke:none"
   d="m 91.6203,55.8659 c 0.6392,-0.0157 1.918,-0.0473 2.5572,-0.0632 1.5055,1.5687 3.0598,3.0908 4.6021,4.6266 -0.0249,1.1757 0.4629,2.0519 1.6635,2.3969 -1.0619,0.275 -2.1585,0.3812 -3.2404,0.496 -0.4466,0.6028 -1.0013,1.0804 -1.6643,1.4327 0.1895,1.7563 1.7847,2.7387 2.881,3.9389 1.1457,0.1089 2.4241,0.0696 3.3014,0.9603 0.838,0.0257 1.6797,0.0462 2.5254,0.0618 -4e-4,1.0923 -0.002,2.1834 0.008,3.2802 1.0456,-0.1072 2.3536,0.0851 2.6593,-1.2216 1.8369,-0.0157 3.676,-0.0228 5.5171,0.0148 0.4769,1.0175 1.62,1.0665 2.5249,1.4993 0.1124,0.5721 0.3368,1.7158 0.449,2.2879 0.9185,-1.1946 1.8055,-2.7362 3.5056,-2.7889 0.5233,0.7325 1.0763,1.4557 1.6334,2.172 0.9536,0.0772 1.9616,0.1694 2.3751,1.2099 0.4258,0.0167 1.2773,0.05 1.7031,0.0666 0.0201,2.0396 -0.1333,4.0936 0.1184,6.1251 0.2568,0.1532 0.7707,0.4595 1.0275,0.6127 0.0131,1.6393 0.0103,3.281 -0.009,4.9231 1.0276,0.8667 2.7351,1.6491 3.6372,0.1384 0.4848,-0.0071 0.9748,-0.0088 1.4698,-0.0048 0.6241,0.9085 1.388,1.7016 2.3193,2.3105 0.0143,1.5981 0.005,3.1974 0.0245,4.7986 2.1311,0.7683 0.7664,3.6607 1.1679,5.4014 1.0772,0.7258 1.9413,1.6986 2.4368,2.9163 0.3023,-0.545 0.6185,-1.0819 0.9338,-1.619 1.2251,0.0176 2.4555,0.0359 3.6885,0.0739 0.5457,0.6495 1.1045,1.2945 1.6784,1.9301 0.2568,0.2733 0.7705,0.8197 1.0273,1.093 0.8453,0.2158 1.6932,0.4767 2.3742,1.0648 0.7181,0.0421 1.4411,0.086 2.1691,0.1319 0.5912,1.3109 2.0649,1.126 3.2554,1.376 -0.4038,0.3 -1.2111,0.8997 -1.6149,1.1997 -0.0377,2.674 0.2009,5.3703 -0.1099,8.0327 -0.2473,0.1399 -0.7414,0.4196 -0.9886,0.5595 -0.0256,1.3684 -0.2702,2.7057 -1.1699,3.7932 0.5606,-0.005 1.682,-0.0164 2.2426,-0.0219 0.0253,0.3142 0.0761,0.9426 0.1014,1.2568 l 1.0445,0.003 c 0.0303,-0.316 0.0909,-0.9481 0.121,-1.2642 0.6485,0.003 1.301,0.008 1.9574,0.015 0.021,0.2979 0.0627,0.8935 0.0836,1.1915 1.1694,0.2077 2.8645,-0.4412 3.5045,0.9221 3.0194,0.0621 6.0411,0.0285 9.064,0.017 0.0316,0.3988 0.0949,1.196 0.1266,1.5947 0.461,0.5351 0.9226,1.0754 1.3847,1.6207 1.0129,0.007 2.0254,0.0108 3.0496,0.0224 -0.0205,0.4494 -0.0615,1.3484 -0.0821,1.7978 0.923,0.8365 1.9426,1.5724 3.2605,1.5668 0.007,-0.556 0.02,-1.6678 0.0265,-2.2238 0.4952,0.006 1.4855,0.0174 1.9805,0.0232 0.0381,-0.3091 0.1146,-0.9274 0.1528,-1.2363 1.4286,0.0905 3.2985,-0.3612 3.6425,1.5533 0.2923,-0.4326 0.8771,-1.2977 1.1694,-1.7303 0.9552,0.2843 1.7379,0.9093 2.525,1.5018 0.0111,0.4069 0.0331,1.2208 0.0444,1.6277 1.627,0.3402 0.9794,2.1212 1.1451,3.322 -0.7144,0.53 -1.406,1.0826 -2.101,1.6317 0.0154,1.6938 0.007,3.3889 -0.0278,5.086 -0.5074,0.0101 -1.5223,0.0299 -2.0297,0.04 0.009,1.9327 0.0122,3.8664 -0.006,5.8022 -1.1452,0.9521 -2.2153,1.9874 -3.2882,3.0167 -0.001,1.1799 10e-4,2.365 7e-4,3.5508 -0.7761,0.6471 -1.5397,1.3069 -2.3066,1.9611 0.003,0.3736 0.009,1.1208 0.0114,1.4944 -0.8264,0.7419 -1.7623,1.3308 -2.8847,1.4598 -0.5326,0.6292 -1.0595,1.2628 -1.5629,1.9145 -0.3563,0.095 -1.0684,0.285 -1.4247,0.38 0.5839,0.3439 1.1713,0.6922 1.7623,1.0441 -0.0333,2.3314 -0.038,4.6645 -0.012,6.999 -1.4245,1.1732 -3.2516,1.109 -4.9869,1.1012 -0.5972,0.7366 -1.2003,1.4677 -1.8075,2.1955 -1.2936,-0.01 -2.1928,0.8431 -2.9938,1.7297 0.0309,1.1094 0.0505,2.2235 0.0936,3.3399 1.9655,1.0471 2.7165,3.9098 5.2408,3.803 0.0257,1.858 0.3449,3.9776 -1.4123,5.19 -0.7974,-0.0232 -1.5905,-0.0346 -2.3792,-0.0339 -1.2165,1.7602 -3.8766,0.5538 -5.7071,0.8813 0.001,-0.5087 0.004,-1.5263 0.006,-2.0349 -0.5687,-0.0199 -1.1331,-0.0358 -1.693,-0.0481 -0.5736,0.6699 -1.161,1.3278 -1.754,1.9799 -0.9942,0.121 -1.8315,0.6286 -2.6024,1.2259 -1.2176,0.0836 -2.4317,0.046 -3.6432,0.0393 -0.023,0.3132 -0.0688,0.9399 -0.0918,1.2533 -0.9147,-0.017 -1.8249,-0.0349 -2.731,-0.054 -0.7604,0.7589 -1.3889,1.6586 -1.4478,2.7747 -0.6297,0.5384 -1.2616,1.0752 -1.8823,1.6209 0.0432,1.3156 0.0645,2.7141 -1.3202,3.3363 0.2766,1.4685 -0.8169,4.0683 1.2747,4.4835 -0.0236,0.533 -0.0436,1.0695 -0.0604,1.61 -2.845,0.101 -5.691,0.06 -8.5342,0.0675 -0.0118,-0.9659 -0.0251,-1.9315 -0.0374,-2.8884 -2.0628,-0.5798 -0.8038,-3.2159 -1.1614,-4.7517 -0.305,-0.0194 -0.9147,-0.0581 -1.2195,-0.0776 0.005,-0.4754 0.0161,-1.4262 0.0215,-1.9016 -0.924,-0.1023 -1.9932,0.0343 -2.3822,-1.0138 -0.4161,0.003 -1.2485,0.009 -1.6646,0.0118 -0.0526,-0.7804 -0.101,-1.5576 -0.1451,-2.3315 -1.7398,4e-4 -3.4772,-9e-4 -5.2117,-0.005 -0.0259,0.4015 -0.0777,1.2043 -0.1035,1.6059 -0.4912,0.5305 -0.9721,1.0704 -1.4486,1.6145 -0.8838,0.002 -1.7639,0.008 -2.6399,0.0202 -0.4634,0.6639 -0.9195,1.3366 -1.3734,2.0091 -1.2912,0.0168 -2.5799,0.0308 -3.8632,0.0875 -0.4557,0.5405 -0.9528,1.0398 -1.4914,1.4978 -0.0133,0.4058 -0.0398,1.2174 -0.0531,1.6233 -0.9863,0.092 -2.0763,0.1051 -2.3416,1.2745 -0.8502,-4e-4 -1.6974,-0.008 -2.5384,-0.005 -0.535,0.6837 -1.0587,1.3794 -1.5808,2.0749 -1.5711,-0.005 -3.1394,-0.0117 -4.7049,0.0111 -0.74,1.8211 -2.9434,0.9354 -4.4502,1.1903 -0.6274,0.8964 -1.4056,1.6715 -2.3315,2.258 -0.0193,1.0002 -0.0311,1.9988 -0.0335,3.0085 -0.308,0.0221 -0.924,0.0664 -1.2321,0.0885 -0.0086,0.9627 -0.0181,1.9262 -0.0241,2.8978 -0.7058,0.5455 -1.3953,1.1105 -2.088,1.6715 0.0761,2.6042 0.0683,5.2114 0.0142,7.8191 0.6955,0.5552 1.3888,1.1172 2.0929,1.6769 0.0062,2.2964 0.0017,4.595 0.0047,6.8953 -0.4835,0.4696 -0.9607,0.9459 -1.432,1.4288 -0.443,0.0112 -1.3291,0.034 -1.772,0.0452 -0.0116,0.4485 -0.0346,1.3454 -0.046,1.7939 -0.3467,0.3443 -1.0401,1.033 -1.3869,1.3773 -1.9077,-0.005 -3.8137,-0.01 -5.7174,0.0154 -0.8703,1.1116 -1.782,2.1897 -2.6969,3.2665 -1.2775,0.006 -2.5526,-0.002 -3.8241,-0.0181 -0.1784,-0.9807 -0.3806,-1.9693 -1.046,-2.7407 -0.1024,-2.544 -0.0525,-5.0885 -0.0473,-7.6302 1.0563,-1.0362 2.0968,-2.0886 3.1879,-3.088 0.0088,-1.1086 0.0114,-2.2144 0.008,-3.3144 -0.2646,-0.1463 -0.7937,-0.4384 -1.0583,-0.5846 -0.2339,-3.4557 -0.0144,-6.9304 -0.0802,-10.3915 -0.4747,-0.001 -1.4238,-0.005 -1.8982,-0.006 -0.1657,-1.0611 0.0331,-2.46 -1.4064,-2.5832 -0.0069,-2.6016 -0.0164,-5.202 0.0387,-7.8 -0.6371,-0.5483 -1.2733,-1.0952 -1.9017,-1.6396 -0.179,-0.9994 -0.1801,-2.162 -1.3317,-2.5391 -0.0165,-0.7525 -0.03,-1.5011 -0.0402,-2.2454 -1.3718,-0.6097 -1.1494,-2.7991 0.3095,-3.1041 -1.2059,-1.0626 -2.3321,-2.2072 -3.492,-3.3119 -0.0056,-0.3581 -0.0166,-1.0742 -0.022,-1.4321 -1.3381,-0.2637 -2.5438,-0.9196 -3.8484,-1.2773 -0.3748,-0.9315 -1.29,-1.0101 -2.1645,-1.0546 -0.2114,-0.2291 -0.634,-0.6871 -0.8453,-0.9162 -0.8238,-0.1019 -1.5186,-0.4396 -2.0843,-1.0132 -0.3791,-0.01 -1.1371,-0.0298 -1.5159,-0.0397 -0.4767,-2.0427 -1.4225,-3.9542 -1.158,-6.1183 -0.5211,-0.4767 -1.0138,-0.9763 -1.478,-1.4982 -2.6384,-0.1212 -5.2783,0.0275 -7.9143,-0.0608 -0.6729,0.0307 -1.2421,-0.1917 -1.7084,-0.6671 -0.5909,-0.5988 -1.1997,-1.1759 -1.8263,-1.7256 -0.0419,-1.762 0.0592,-3.5259 -0.0791,-5.2803 -0.4633,-1.2145 -1.228,-2.27 -1.9428,-3.3367 -0.0166,-0.3982 -0.0497,-1.1947 -0.0663,-1.5928 -0.2929,-0.0434 -0.8786,-0.13 -1.1713,-0.1732 0.0013,-0.4127 0.0039,-1.238 0.0054,-1.6506 -1.2704,-0.7535 -0.7645,-2.3672 -0.9564,-3.5626 -1.0523,-0.0326 -2.1067,-0.063 -3.1529,-0.083 -0.0033,-0.4077 -0.0104,-1.2231 -0.0138,-1.6306 -0.5326,-0.4969 -1.06,-0.9946 -1.5818,-1.4931 -0.426,-0.0234 -1.2777,-0.0704 -1.7035,-0.0939 -0.008,-0.4173 -0.0241,-1.2521 -0.0322,-1.6695 -0.9728,-0.6136 -1.2395,-1.6134 -1.2021,-2.7031 0.5366,-0.0211 1.61,-0.0634 2.1468,-0.0844 -0.0012,-1.9436 0.0185,-3.8857 -0.0788,-5.8242 -0.6412,-1.2083 -1.172,-2.5024 -2.1946,-3.4457 -0.2558,-0.3129 -0.7675,-0.9384 -1.0233,-1.2511 -0.3743,-0.029 -1.1229,-0.087 -1.4971,-0.116 -0.4664,-0.4709 -0.933,-0.9365 -1.4,-1.3972 -0.0026,-0.8013 -0.0056,-1.5995 -0.009,-2.3951 -1.6169,-0.3295 -1.0169,-2.1009 -1.218,-3.2903 -1.9427,-1.2702 -0.2416,-3.6443 0.3121,-5.2353 0.3672,-0.455 0.7601,-0.8862 1.1788,-1.2937 0.726,-0.7176 1.3736,-1.5087 1.9709,-2.3345 0.9342,-0.0135 1.8694,-0.003 2.8094,-8e-4 0.5429,0.715 1.1067,1.4208 1.6652,2.1327 0.4684,-0.0306 1.4052,-0.0922 1.8735,-0.1228 -0.0013,0.5432 -0.004,1.6298 -0.0055,2.1731 3.5133,0.002 7.0271,-0.0133 10.5419,0.0125 0.0959,-1.0097 -0.0898,-2.2689 1.2245,-2.4951 0.0318,-2.014 0.0219,-4.0268 0.0909,-6.0374 1.2324,-0.0823 2.6405,0.1494 3.5514,-0.9067 0.4169,-0.0275 1.2502,-0.0826 1.6671,-0.1103 -0.0051,-1.0868 -0.0041,-2.1686 -0.0023,-3.2498 1.6972,0.002 3.4015,0.0896 5.0975,-0.0746 0.1445,-0.302 0.4335,-0.9063 0.578,-1.2085 1.1345,-0.0565 1.8298,0.5321 2.127,1.5925 0.6203,-0.7474 1.256,-1.482 1.9075,-2.2025 1.0763,-0.2366 2.0723,-0.6996 2.7862,-1.5644 1.1121,-0.9358 2.5232,-1.3944 3.7836,-2.0886 -0.3087,-0.3084 -0.9263,-0.9251 -1.235,-1.2335 -0.0498,-1.5046 -1.0686,-2.552 -2.2481,-3.3264 -0.0247,-1.4855 -0.0223,-2.9691 0.0075,-4.451 0.8961,-0.8081 1.7646,-1.6478 2.5974,-2.5224 0.7627,-0.0014 1.5287,-0.0015 2.298,-8e-4 1.3479,-1.8458 3.0284,-3.4151 4.8134,-4.8311 8e-4,-0.4195 0.0021,-1.2581 0.0028,-1.6776 0.4408,0.0092 1.3222,0.0275 1.763,0.0367 0.1702,1.0824 1.0896,1.1715 1.9816,1.1999 0.4322,-0.5874 0.9196,-1.1255 1.4621,-1.614 0.0284,-0.3379 0.0849,-1.0136 0.1133,-1.3515 1.666,-1.1083 0.5383,-3.5832 0.9007,-5.2648 0.8178,-0.8173 1.9814,-1.455 2.3466,-2.6123 -0.3325,-1.1493 -1.5088,-1.7571 -2.2933,-2.5778 0.5837,-2.7018 -1.9336,-3.9256 -3.3249,-5.735 -0.6333,-0.0755 -1.2633,-0.1464 -1.8904,-0.2128 -0.2057,-0.9083 -0.1191,-2.0222 -1.0314,-2.5877 -0.0359,-1.2848 -0.0353,-2.5683 -0.0308,-3.8502 2.7268,-0.0648 5.4713,0.1709 8.1892,-0.122 0.1348,-0.233 0.4045,-0.699 0.5393,-0.9321 1.1572,-0.7078 2.4387,-1.2262 3.4723,-2.1276 1.1357,-0.0341 2.2735,-0.044 3.4162,-0.0507 0.544,-0.6979 1.1021,-1.3858 1.6577,-2.0762 0.4657,0.0145 1.3968,0.0437 1.8625,0.0583 0.0372,-0.2917 0.1118,-0.8752 0.1492,-1.167 l 0,0 z"/></svg>