<svg width="20" height="20" viewBox="0 0 20 20" fill="none" xmlns="http://www.w3.org/2000/svg">
<path d="M9.99999 5.83333V2.5H1.66666V17.5H18.3333V5.83333H9.99999ZM4.99999 15.8333H3.33332V14.1667H4.99999V15.8333ZM4.99999 12.5H3.33332V10.8333H4.99999V12.5ZM4.99999 9.16667H3.33332V7.5H4.99999V9.16667ZM4.99999 5.83333H3.33332V4.16667H4.99999V5.83333ZM8.33332 15.8333H6.66666V14.1667H8.33332V15.8333ZM8.33332 12.5H6.66666V10.8333H8.33332V12.5ZM8.33332 9.16667H6.66666V7.5H8.33332V9.16667ZM8.33332 5.83333H6.66666V4.16667H8.33332V5.83333ZM16.6667 15.8333H9.99999V14.1667H11.6667V12.5H9.99999V10.8333H11.6667V9.16667H9.99999V7.5H16.6667V15.8333ZM15 9.16667H13.3333V10.8333H15V9.16667ZM15 12.5H13.3333V14.1667H15V12.5Z" fill="#344B77"/>
</svg>
