<svg width="20" height="20" viewBox="0 0 20 20" fill="none" xmlns="http://www.w3.org/2000/svg">
<path d="M2.91667 8.74984C2.91667 10.7915 4.38333 12.4748 6.31667 12.8415L5.075 11.5998L6.25 10.4165L9.58333 13.7582L6.25 17.0832L5.075 15.9082L6.39167 14.5915V14.5415C3.5 14.1998 1.25 11.7332 1.25 8.74984C1.25 5.52484 3.85833 2.9165 7.08333 2.9165H9.58333V4.58317H7.08333C4.78333 4.58317 2.91667 6.44984 2.91667 8.74984Z" fill="#344B77"/>
<path d="M18.75 8.74984V2.9165H11.25V8.74984H18.75ZM17.0833 7.08317H12.9167V4.58317H17.0833V7.08317Z" fill="#344B77"/>
<path d="M18.75 10.4165H11.25V16.2498H18.75V10.4165Z" fill="#344B77"/>
</svg>
